<?xml version="1.0" standalone="no"?>
<!DOCTYPE svg PUBLIC "-//W3C//DTD SVG 20010904//EN"
 "http://www.w3.org/TR/2001/REC-SVG-20010904/DTD/svg10.dtd">
<svg version="1.0" xmlns="http://www.w3.org/2000/svg"
 width="900.000000pt" height="900.000000pt" viewBox="0 0 900.000000 900.000000"
 preserveAspectRatio="xMidYMid meet">

<g transform="translate(0.000000,900.000000) scale(0.100000,-0.100000)"
fill="#000000" stroke="none">
<path d="M7409 7463 c-13 -16 -12 -17 4 -4 16 13 21 21 13 21 -2 0 -10 -8 -17
-17z"/>
<path d="M1095 7087 c-61 -20 -86 -36 -131 -79 -23 -22 -46 -41 -50 -42 -5 0
-8 -6 -6 -13 1 -6 -3 -15 -9 -19 -8 -4 -9 -3 -5 4 4 7 5 12 2 12 -12 0 -48
-86 -67 -157 -39 -154 -18 -369 53 -546 96 -237 292 -450 474 -512 41 -14 316
-77 529 -121 39 -9 82 -24 97 -35 15 -10 31 -19 35 -19 4 0 1 5 -7 11 -13 9
-13 10 0 6 8 -2 15 -8 15 -14 0 -6 11 -21 25 -33 14 -12 18 -19 10 -15 -8 4
-3 -4 13 -17 22 -19 25 -26 15 -37 -9 -10 -9 -12 -1 -7 6 3 16 -1 20 -9 5 -8
19 -17 31 -20 12 -2 27 -7 34 -11 7 -4 8 -3 4 4 -11 18 45 8 79 -14 29 -18 30
-18 15 0 -8 11 -14 22 -12 25 2 3 -2 7 -10 9 -9 2 -8 0 2 -8 10 -8 11 -10 2
-8 -8 2 -14 8 -14 13 0 6 -5 16 -11 24 -6 7 23 -7 66 -32 42 -26 77 -44 77
-42 0 2 -22 19 -50 39 -68 49 -63 65 8 26 52 -29 50 -25 -13 24 l-20 16 20 -7
c11 -3 39 -17 63 -31 53 -30 55 -21 2 14 -57 38 -44 39 26 3 54 -28 54 -26 -1
15 -18 13 -16 14 25 6 25 -5 65 -15 90 -23 25 -8 83 -23 130 -33 47 -10 94
-23 105 -30 11 -7 36 -15 55 -19 78 -15 258 -57 302 -71 26 -8 86 -23 135 -34
48 -10 140 -32 203 -49 63 -17 140 -36 170 -42 30 -6 62 -13 70 -17 8 -3 20
-4 26 -3 6 0 31 -6 55 -15 24 -8 62 -18 84 -21 22 -2 41 -6 43 -7 1 -2 -124
-36 -278 -77 -154 -41 -274 -75 -268 -77 7 -1 165 35 350 81 311 77 408 93
408 68 0 -4 -39 -17 -87 -30 -264 -68 -433 -114 -429 -118 2 -3 129 28 282 67
153 39 284 69 292 68 8 -2 -96 -32 -232 -67 -135 -35 -244 -66 -242 -68 2 -3
119 25 259 61 230 60 332 81 272 57 -11 -5 -77 -23 -148 -41 -70 -18 -125 -35
-123 -37 2 -3 74 14 159 36 153 40 211 50 191 32 -5 -5 -173 -52 -374 -106
-328 -87 -391 -105 -366 -105 11 0 757 197 779 205 9 4 17 3 17 -2 0 -5 -142
-47 -316 -93 -174 -46 -312 -86 -308 -87 5 -2 153 35 328 82 176 47 333 85
350 84 27 0 28 -2 11 -9 -11 -5 -199 -57 -417 -116 -219 -59 -396 -109 -394
-111 3 -4 805 207 856 225 10 3 12 2 5 -5 -5 -5 -207 -63 -449 -129 -241 -65
-434 -120 -429 -121 4 -2 214 52 465 120 251 68 464 120 473 117 10 -3 -97
-38 -246 -79 -610 -168 -811 -225 -803 -228 5 -2 256 64 559 147 302 82 554
150 560 150 5 0 3 -5 -5 -11 -11 -8 -6 -9 20 -5 30 5 32 5 11 -4 -13 -6 -32
-8 -42 -5 -17 6 -543 -135 -535 -143 2 -2 39 6 81 18 42 12 79 20 81 17 5 -4
-255 -78 -271 -76 -6 1 15 9 45 20 30 10 42 16 25 13 -16 -2 -57 -13 -90 -24
-52 -17 -55 -19 -20 -15 22 3 -49 -21 -157 -52 -109 -31 -196 -58 -194 -60 4
-4 127 29 774 208 177 49 327 87 332 84 6 -4 10 -3 10 2 0 4 11 8 25 8 14 0
25 -3 25 -7 0 -4 8 -5 18 -2 16 5 16 5 -1 -6 -9 -6 -21 -8 -27 -5 -14 9 -61
-6 -54 -17 4 -6 -2 -7 -17 -3 -18 5 -21 4 -13 -4 12 -13 67 -4 59 9 -2 4 8 7
23 7 15 0 44 4 65 8 32 7 36 5 31 -8 -3 -9 -12 -13 -20 -10 -8 3 -14 0 -14 -7
0 -7 -8 -9 -20 -5 -11 4 -20 2 -20 -4 0 -6 -7 -8 -15 -5 -8 4 -15 1 -15 -6 0
-7 -8 -9 -20 -5 -11 4 -20 2 -20 -4 0 -6 -7 -8 -15 -5 -8 4 -15 1 -15 -6 0 -7
-8 -9 -20 -5 -12 4 -20 2 -20 -5 0 -7 -7 -10 -15 -6 -8 3 -15 1 -15 -5 0 -6
-10 -8 -22 -4 -22 6 -22 6 -4 -9 22 -18 51 -22 41 -6 -4 7 3 9 22 5 22 -5 25
-4 13 4 -12 9 -9 10 14 5 21 -5 27 -4 22 5 -6 9 0 10 21 6 22 -5 25 -4 13 4
-12 9 -9 10 14 5 21 -5 27 -4 22 5 -6 9 0 10 21 6 22 -5 25 -4 13 4 -12 9 -9
10 14 5 18 -4 27 -3 23 3 -4 6 4 8 20 5 17 -3 24 -1 19 6 -4 6 2 8 16 5 15 -3
19 -2 11 4 -8 6 -1 9 22 9 19 0 32 -3 28 -7 -5 -4 -191 -60 -416 -125 -224
-64 -405 -119 -403 -121 2 -2 190 50 417 115 228 66 419 121 424 122 25 5 68
-1 60 -8 -6 -5 -254 -80 -552 -167 -299 -87 -541 -160 -539 -162 3 -3 1052
300 1126 325 10 3 12 2 5 -5 -5 -6 -175 -59 -378 -119 -202 -59 -365 -109
-363 -111 2 -2 174 46 382 107 421 124 417 123 408 108 -5 -7 2 -9 22 -4 23 5
26 4 11 -4 -9 -6 -26 -8 -37 -5 -10 3 -53 -4 -96 -16 -59 -18 -72 -25 -58 -31
14 -6 11 -7 -9 -3 -19 4 -192 -44 -552 -152 -289 -86 -523 -158 -521 -161 2
-2 81 20 176 48 95 28 174 50 176 48 2 -2 -152 -51 -341 -108 -190 -57 -343
-105 -341 -108 5 -4 340 94 1150 336 l498 149 71 -18 c39 -10 75 -17 80 -16 5
1 12 -4 15 -12 3 -10 0 -12 -10 -8 -9 3 -20 1 -24 -3 -5 -5 -19 -11 -31 -13
-13 -2 -25 -6 -29 -9 -3 -4 -12 -4 -20 -1 -8 3 -14 0 -14 -7 0 -7 -6 -10 -14
-7 -7 3 -25 -1 -40 -8 -14 -8 -26 -11 -26 -7 0 3 -5 1 -11 -5 -6 -6 -18 -9
-25 -6 -8 3 -14 0 -14 -7 0 -7 -7 -10 -15 -6 -8 3 -15 1 -15 -5 0 -6 -7 -9
-15 -5 -8 3 -15 1 -15 -5 0 -6 -7 -9 -15 -6 -8 4 -17 2 -20 -3 -3 -5 -12 -7
-20 -3 -8 3 -15 0 -15 -7 0 -7 -7 -10 -15 -6 -8 3 -15 1 -15 -5 0 -6 -7 -9
-15 -5 -8 3 -15 1 -15 -5 0 -6 -7 -9 -15 -5 -8 3 -15 1 -15 -5 0 -6 -9 -8 -20
-4 -12 4 -20 2 -20 -5 0 -7 -7 -10 -15 -6 -8 3 -15 1 -15 -5 0 -6 -7 -9 -15
-5 -8 3 -15 1 -15 -5 0 -6 -9 -8 -21 -4 -16 5 -19 4 -14 -5 5 -9 1 -10 -15 -5
-17 5 -21 4 -15 -6 6 -9 2 -11 -13 -7 -12 4 -22 2 -22 -4 0 -6 -7 -8 -15 -4
-8 3 -15 1 -15 -5 0 -6 -7 -9 -15 -5 -8 3 -15 1 -15 -5 0 -6 -9 -8 -21 -4 -16
5 -19 4 -14 -6 6 -9 2 -11 -13 -7 -12 4 -22 2 -22 -4 0 -6 -7 -8 -15 -4 -8 3
-15 1 -15 -5 0 -6 -7 -9 -15 -5 -8 3 -15 0 -15 -5 0 -6 -9 -9 -20 -6 -13 3
-18 1 -13 -6 4 -6 -2 -8 -15 -5 -14 4 -20 2 -15 -5 4 -6 -2 -8 -15 -5 -12 4
-22 2 -22 -4 0 -6 -7 -8 -15 -4 -8 3 -15 0 -15 -5 0 -6 -9 -9 -20 -6 -13 3
-18 1 -13 -6 4 -6 -2 -8 -15 -5 -14 4 -20 2 -15 -5 4 -6 -2 -8 -15 -5 -12 4
-20 3 -18 -1 7 -10 -83 -33 -96 -25 -7 5 -8 2 -3 -6 6 -10 3 -12 -13 -8 -12 4
-20 3 -18 -1 3 -4 -67 -29 -155 -55 -88 -27 -157 -51 -155 -53 2 -2 341 100
752 227 412 128 769 238 794 246 24 7 46 12 48 10 4 -5 102 26 -903 -286 -462
-144 -842 -263 -844 -266 -11 -11 -88 -34 1249 380 480 149 570 174 570 156 0
-4 -234 -80 -520 -170 -286 -90 -518 -165 -516 -167 4 -5 1018 312 1044 326
11 6 24 6 33 1 7 -5 23 -7 34 -4 13 4 17 3 10 -4 -5 -5 -350 -118 -765 -250
-1120 -357 -1242 -396 -1233 -399 9 -3 484 146 1447 453 512 164 584 184 622
178 25 -3 49 -2 57 4 6 5 135 50 285 98 151 49 270 90 265 91 -4 1 -125 -35
-268 -81 -220 -71 -262 -82 -274 -71 -12 12 15 44 180 217 107 112 313 329
459 483 146 153 350 367 454 475 225 233 478 516 462 518 -27 2 -85 29 -79 37
5 4 1 4 -9 -1 -9 -5 -387 -374 -841 -821 l-824 -812 -2027 435 c-1367 293
-2033 439 -2043 450 -12 11 -13 18 -5 23 6 4 9 18 6 31 -3 14 -7 39 -10 55 -2
17 -7 40 -9 53 -4 14 -1 22 7 22 9 0 8 3 -2 10 -12 7 -12 12 -2 22 16 16 15
28 -3 28 -12 0 -15 11 -14 53 1 29 -3 62 -9 73 -6 11 -9 44 -7 72 3 29 1 52
-4 52 -4 0 -7 24 -6 53 1 28 -3 61 -8 72 -7 13 -6 20 2 23 9 3 9 7 0 18 -6 7
-9 20 -6 29 4 8 2 17 -2 20 -5 3 -8 18 -7 35 1 16 -1 30 -6 30 -4 0 -8 27 -8
60 0 38 -4 60 -11 60 -8 0 -8 4 0 14 9 11 8 18 -5 31 -13 12 -14 19 -5 24 9 6
9 15 1 35 -5 15 -7 32 -4 38 4 6 0 14 -7 19 -12 7 -11 9 1 9 13 0 13 1 0 10
-12 8 -13 11 -1 19 10 6 10 10 1 16 -6 4 -9 13 -6 20 2 7 -1 21 -8 31 -8 11
-17 33 -20 51 -6 28 -12 32 -44 36 -23 2 -12 4 28 5 41 1 878 -117 2315 -329
1765 -259 2254 -328 2270 -319 11 6 31 20 45 32 l25 20 -27 -16 c-34 -20 -35
-20 -41 4 -5 19 -27 29 -27 12 0 -5 -213 22 -472 59 -260 37 -597 83 -748 103
-151 20 -342 45 -425 56 -222 29 -799 107 -965 131 -80 11 -221 31 -315 44
-93 14 -345 49 -560 79 -214 31 -529 76 -700 102 -350 52 -451 60 -510 41z
m182 -419 c-3 -8 -6 -5 -6 6 -1 11 2 17 5 13 3 -3 4 -12 1 -19z m-424 -188 c4
-50 3 -58 -4 -35 -5 17 -12 73 -14 125 -3 80 -3 86 4 35 5 -33 11 -89 14 -125z
m434 88 c-2 -13 -4 -5 -4 17 -1 22 1 32 4 23 2 -10 2 -28 0 -40z m10 -75 c-3
-10 -5 -2 -5 17 0 19 2 27 5 18 2 -10 2 -26 0 -35z m10 -95 c-2 -13 -4 -5 -4
17 -1 22 1 32 4 23 2 -10 2 -28 0 -40z m10 -85 c-3 -10 -5 -2 -5 17 0 19 2 27
5 18 2 -10 2 -26 0 -35z m10 -85 c-2 -13 -4 -5 -4 17 -1 22 1 32 4 23 2 -10 2
-28 0 -40z m10 -80 c-2 -13 -4 -5 -4 17 -1 22 1 32 4 23 2 -10 2 -28 0 -40z
m-364 -40 c36 -60 123 -160 153 -176 14 -7 22 -18 18 -24 -4 -6 -3 -9 2 -5 5
3 34 -15 64 -40 63 -52 104 -74 180 -97 30 -9 372 -86 760 -171 860 -187 1261
-278 1255 -283 -3 -4 -154 27 -365 73 -36 8 -114 24 -175 36 -160 30 -438 89
-780 164 -165 36 -385 84 -490 106 -219 47 -292 72 -372 127 -96 66 -216 200
-267 300 -24 46 -12 40 17 -10z m374 -55 c-3 -10 -5 -2 -5 17 0 19 2 27 5 18
2 -10 2 -26 0 -35z m10 -85 c-2 -13 -4 -5 -4 17 -1 22 1 32 4 23 2 -10 2 -28
0 -40z m10 -60 c-3 -7 -5 -2 -5 12 0 14 2 19 5 13 2 -7 2 -19 0 -25z m833
-471 c0 -7 -49 -1 -56 6 -5 4 0 5 10 1 14 -5 17 -4 11 5 -6 10 -3 11 14 2 11
-7 21 -13 21 -14z m1305 -142 c28 -7 41 -13 30 -13 -11 0 -42 6 -70 13 -27 7
-41 13 -30 13 11 0 43 -6 70 -13z m182 -41 c-3 -3 -12 -4 -19 -1 -8 3 -5 6 6
6 11 1 17 -2 13 -5z m40 -10 c-3 -3 -12 -4 -19 -1 -8 3 -5 6 6 6 11 1 17 -2
13 -5z m230 -50 c-3 -3 -12 -4 -19 -1 -8 3 -5 6 6 6 11 1 17 -2 13 -5z m149
-28 c66 -14 306 -66 534 -116 871 -193 940 -207 994 -209 15 -1 17 -4 9 -12
-9 -9 -44 -5 -140 17 -70 15 -137 29 -148 30 -11 1 -27 4 -35 7 -20 7 -167 38
-205 43 -60 8 -81 12 -125 25 -52 15 -84 21 -122 23 -14 0 -24 4 -22 7 2 4
-13 9 -34 12 -20 3 -53 9 -72 13 -19 3 -45 7 -57 8 -11 0 -19 5 -16 10 3 5 -6
7 -21 4 -14 -3 -26 -2 -26 3 0 4 -11 6 -25 4 -14 -1 -25 2 -25 6 0 5 -13 9
-28 9 -16 0 -64 9 -107 21 -44 11 -98 24 -120 29 -22 5 -67 16 -100 24 -274
68 -314 84 -109 42z m459 -186 c-11 -5 -27 -9 -35 -9 -9 0 -8 4 5 9 11 5 27 9
35 9 9 0 8 -4 -5 -9z m-70 -19 c-11 -5 -36 -11 -55 -14 -35 -6 -34 -6 5 8 43
14 84 19 50 6z m-150 -42 c-59 -18 -131 -34 -108 -23 22 10 138 42 153 42 8 0
-12 -8 -45 -19z m670 -49 c-11 -5 -27 -9 -35 -9 -9 0 -8 4 5 9 11 5 27 9 35 9
9 0 8 -4 -5 -9z m340 -10 c-3 -5 -12 -10 -18 -10 -7 0 -6 4 3 10 19 12 23 12
15 0z m-528 -46 c-3 -3 -12 -4 -19 -1 -8 3 -5 6 6 6 11 1 17 -2 13 -5z m-100
-30 c-3 -3 -12 -4 -19 -1 -8 3 -5 6 6 6 11 1 17 -2 13 -5z m-82 -24 c-11 -5
-27 -9 -35 -9 -9 0 -8 4 5 9 11 5 27 9 35 9 9 0 8 -4 -5 -9z m-100 -30 c-11
-5 -27 -9 -35 -9 -9 0 -8 4 5 9 11 5 27 9 35 9 9 0 8 -4 -5 -9z m-100 -30
c-11 -5 -27 -9 -35 -9 -9 0 -8 4 5 9 11 5 27 9 35 9 9 0 8 -4 -5 -9z m-85 -25
c-19 -7 -42 -13 -50 -13 -8 0 1 6 20 13 19 7 42 13 50 13 8 0 -1 -6 -20 -13z
m-100 -30 c-19 -7 -42 -13 -50 -13 -8 0 1 6 20 13 19 7 42 13 50 13 8 0 -1 -6
-20 -13z"/>
<path d="M939 7013 c-13 -16 -12 -17 4 -4 16 13 21 21 13 21 -2 0 -10 -8 -17
-17z"/>
<path d="M1261 7014 c0 -11 3 -14 6 -6 3 7 2 16 -1 19 -3 4 -6 -2 -5 -13z"/>
<path d="M6353 6779 c-35 -22 -46 -37 -15 -20 22 13 58 40 52 41 -3 0 -20 -10
-37 -21z"/>
<path d="M6183 6669 c-35 -22 -46 -37 -15 -20 22 13 58 40 52 41 -3 0 -20 -10
-37 -21z"/>
<path d="M6005 6554 c-71 -47 -115 -83 -60 -49 91 56 145 95 132 95 -1 0 -34
-21 -72 -46z"/>
<path d="M7081 6327 c-47 -51 -134 -146 -195 -212 -180 -194 -239 -258 -271
-295 l-30 -35 30 25 c16 14 37 35 48 47 10 13 21 22 25 20 16 -5 140 65 136
77 -3 7 12 22 33 33 21 12 62 37 91 56 44 29 50 36 38 46 -13 11 -11 17 15 42
16 16 27 29 24 29 -4 0 3 12 15 27 l21 27 -20 16 c-20 15 -18 17 56 98 41 46
74 85 72 87 -2 2 -42 -38 -88 -88z"/>
<path d="M8000 6130 c-58 -15 -250 -65 -428 -110 -177 -46 -320 -85 -318 -87
4 -5 826 203 861 218 41 16 -12 7 -115 -21z"/>
<path d="M6269 6033 c-13 -16 -12 -17 4 -4 9 7 17 15 17 17 0 8 -8 3 -21 -13z"/>
<path d="M7218 5923 c7 -3 16 -2 19 1 4 3 -2 6 -13 5 -11 0 -14 -3 -6 -6z"/>
<path d="M7178 5913 c7 -3 16 -2 19 1 4 3 -2 6 -13 5 -11 0 -14 -3 -6 -6z"/>
<path d="M7138 5903 c7 -3 16 -2 19 1 4 3 -2 6 -13 5 -11 0 -14 -3 -6 -6z"/>
<path d="M7098 5893 c7 -3 16 -2 19 1 4 3 -2 6 -13 5 -11 0 -14 -3 -6 -6z"/>
<path d="M7058 5883 c7 -3 16 -2 19 1 4 3 -2 6 -13 5 -11 0 -14 -3 -6 -6z"/>
<path d="M6249 5803 c-13 -16 -12 -17 4 -4 9 7 17 15 17 17 0 8 -8 3 -21 -13z"/>
<path d="M6608 5753 c7 -3 16 -2 19 1 4 3 -2 6 -13 5 -11 0 -14 -3 -6 -6z"/>
<path d="M6540 5740 c-13 -9 -13 -10 0 -9 8 0 24 4 35 9 l20 9 -20 0 c-11 0
-27 -4 -35 -9z"/>
<path d="M7088 5713 c7 -3 16 -2 19 1 4 3 -2 6 -13 5 -11 0 -14 -3 -6 -6z"/>
<path d="M7048 5703 c7 -3 16 -2 19 1 4 3 -2 6 -13 5 -11 0 -14 -3 -6 -6z"/>
<path d="M6658 5693 c7 -3 16 -2 19 1 4 3 -2 6 -13 5 -11 0 -14 -3 -6 -6z"/>
<path d="M6618 5683 c7 -3 16 -2 19 1 4 3 -2 6 -13 5 -11 0 -14 -3 -6 -6z"/>
<path d="M6978 5683 c7 -3 16 -2 19 1 4 3 -2 6 -13 5 -11 0 -14 -3 -6 -6z"/>
<path d="M6555 5670 c-13 -5 -14 -9 -5 -9 8 0 24 4 35 9 13 5 14 9 5 9 -8 0
-24 -4 -35 -9z"/>
<path d="M6915 5670 c-13 -5 -14 -9 -5 -9 8 0 24 4 35 9 13 5 14 9 5 9 -8 0
-24 -4 -35 -9z"/>
<path d="M6728 5663 c7 -3 16 -2 19 1 4 3 -2 6 -13 5 -11 0 -14 -3 -6 -6z"/>
<path d="M6508 5653 c7 -3 16 -2 19 1 4 3 -2 6 -13 5 -11 0 -14 -3 -6 -6z"/>
<path d="M6688 5653 c7 -3 16 -2 19 1 4 3 -2 6 -13 5 -11 0 -14 -3 -6 -6z"/>
<path d="M6768 5653 c7 -3 16 -2 19 1 4 3 -2 6 -13 5 -11 0 -14 -3 -6 -6z"/>
<path d="M6868 5653 c7 -3 16 -2 19 1 4 3 -2 6 -13 5 -11 0 -14 -3 -6 -6z"/>
<path d="M6458 5643 c6 -2 18 -2 25 0 6 3 1 5 -13 5 -14 0 -19 -2 -12 -5z"/>
<path d="M6705 5640 c-13 -5 -14 -9 -5 -9 8 0 24 4 35 9 13 5 14 9 5 9 -8 0
-24 -4 -35 -9z"/>
<path d="M6585 5583 c-293 -80 -269 -72 -262 -79 5 -5 517 133 526 142 10 10
-40 -2 -264 -63z"/>
<path d="M6618 5633 c7 -3 16 -2 19 1 4 3 -2 6 -13 5 -11 0 -14 -3 -6 -6z"/>
<path d="M6478 5623 c7 -3 16 -2 19 1 4 3 -2 6 -13 5 -11 0 -14 -3 -6 -6z"/>
<path d="M6578 5623 c7 -3 16 -2 19 1 4 3 -2 6 -13 5 -11 0 -14 -3 -6 -6z"/>
<path d="M6658 5623 c7 -3 16 -2 19 1 4 3 -2 6 -13 5 -11 0 -14 -3 -6 -6z"/>
<path d="M6428 5613 c6 -2 18 -2 25 0 6 3 1 5 -13 5 -14 0 -19 -2 -12 -5z"/>
<path d="M6515 5610 c-13 -5 -14 -9 -5 -9 8 0 24 4 35 9 13 5 14 9 5 9 -8 0
-24 -4 -35 -9z"/>
<path d="M6498 5586 c-65 -18 -119 -31 -121 -29 -2 2 -9 -3 -16 -10 -7 -9 38
0 125 24 149 42 167 47 144 47 -8 0 -68 -14 -132 -32z"/>
<path d="M6828 5603 c7 -3 16 -2 19 1 4 3 -2 6 -13 5 -11 0 -14 -3 -6 -6z"/>
<path d="M6468 5593 c7 -3 16 -2 19 1 4 3 -2 6 -13 5 -11 0 -14 -3 -6 -6z"/>
<path d="M6765 5590 c-13 -5 -14 -9 -5 -9 8 0 24 4 35 9 13 5 14 9 5 9 -8 0
-24 -4 -35 -9z"/>
<path d="M6405 5580 c-13 -5 -14 -9 -5 -9 8 0 24 4 35 9 13 5 14 9 5 9 -8 0
-24 -4 -35 -9z"/>
<path d="M6666 5568 c6 -10 -54 -21 -67 -12 -8 5 -9 3 -4 -6 6 -10 1 -12 -18
-8 -16 3 -24 1 -20 -5 4 -6 -5 -7 -23 -3 -23 5 -26 4 -14 -4 12 -9 10 -11 -12
-7 -17 2 -25 0 -21 -6 4 -6 -4 -7 -21 -3 -20 5 -26 4 -20 -5 5 -9 -1 -10 -22
-5 -22 5 -26 4 -14 -4 11 -9 7 -10 -20 -5 -27 5 -32 4 -20 -5 12 -9 9 -10 -15
-6 -23 5 -27 4 -15 -4 12 -9 10 -11 -12 -7 -15 2 -25 0 -22 -4 3 -5 -3 -9 -13
-10 -10 0 -13 -3 -7 -5 10 -4 443 112 452 121 2 2 -14 2 -36 2 -22 -1 -38 -5
-36 -9z"/>
<path d="M6895 5430 c-13 -5 -14 -9 -5 -9 8 0 24 4 35 9 13 5 14 9 5 9 -8 0
-24 -4 -35 -9z"/>
<path d="M6418 5413 c7 -3 16 -2 19 1 4 3 -2 6 -13 5 -11 0 -14 -3 -6 -6z"/>
<path d="M6795 5400 c-13 -5 -14 -9 -5 -9 8 0 24 4 35 9 13 5 14 9 5 9 -8 0
-24 -4 -35 -9z"/>
<path d="M6215 5390 c-3 -6 1 -7 9 -4 18 7 21 14 7 14 -6 0 -13 -4 -16 -10z"/>
<path d="M6280 5379 c-36 -11 -71 -17 -78 -14 -7 3 -10 0 -7 -5 3 -6 -2 -10
-12 -10 -15 0 -16 -2 -3 -10 9 -5 19 -5 24 0 4 4 15 6 22 3 8 -3 14 0 14 6 0
6 7 8 15 5 8 -4 15 -1 15 6 0 6 5 8 10 5 6 -4 17 -1 25 5 8 6 19 9 25 5 5 -3
10 -1 10 5 0 7 7 10 15 6 8 -3 15 -1 15 4 0 13 -12 11 -90 -11z"/>
<path d="M6705 5374 c-22 -8 -51 -12 -65 -9 -17 4 -21 3 -11 -4 10 -7 6 -11
-17 -16 -18 -3 -37 -3 -43 1 -8 5 -9 3 -4 -6 6 -10 1 -11 -21 -6 -23 5 -26 4
-14 -5 12 -8 8 -9 -15 -5 -23 5 -27 4 -15 -4 11 -9 7 -10 -20 -5 -27 5 -32 4
-20 -5 12 -9 9 -10 -15 -6 -23 5 -27 4 -15 -5 12 -8 9 -9 -13 -4 -21 4 -27 3
-21 -6 5 -9 -1 -10 -22 -5 -23 5 -26 4 -14 -5 12 -8 8 -9 -15 -5 -24 5 -27 4
-15 -5 12 -9 10 -10 -10 -5 -35 8 -76 -4 -58 -16 9 -7 6 -8 -12 -4 -34 7 -105
-14 -88 -27 9 -6 5 -7 -12 -3 -32 7 -106 -14 -88 -26 10 -6 9 -8 -4 -8 -9 0
-18 3 -21 8 -2 4 -2 1 -1 -5 2 -7 -3 -13 -11 -13 -7 0 -16 -4 -20 -10 -4 -6 5
-6 22 0 15 5 188 57 383 115 195 59 357 109 359 111 9 8 -25 2 -64 -12z m-468
-140 c-3 -3 -12 -4 -19 -1 -8 3 -5 6 6 6 11 1 17 -2 13 -5z m-100 -30 c-3 -3
-12 -4 -19 -1 -8 3 -5 6 6 6 11 1 17 -2 13 -5z"/>
<path d="M6418 5343 c7 -3 16 -2 19 1 4 3 -2 6 -13 5 -11 0 -14 -3 -6 -6z"/>
<path d="M6325 5320 c-13 -5 -14 -9 -5 -9 8 0 24 4 35 9 13 5 14 9 5 9 -8 0
-24 -4 -35 -9z"/>
<path d="M6198 5313 c7 -3 16 -2 19 1 4 3 -2 6 -13 5 -11 0 -14 -3 -6 -6z"/>
<path d="M6698 5313 c7 -3 16 -2 19 1 4 3 -2 6 -13 5 -11 0 -14 -3 -6 -6z"/>
<path d="M6225 5290 c-13 -5 -14 -9 -5 -9 8 0 24 4 35 9 13 5 14 9 5 9 -8 0
-24 -4 -35 -9z"/>
<path d="M6575 5280 c-13 -5 -14 -9 -5 -9 8 0 24 4 35 9 13 5 14 9 5 9 -8 0
-24 -4 -35 -9z"/>
<path d="M6155 5270 c-13 -5 -14 -9 -5 -9 8 0 24 4 35 9 13 5 14 9 5 9 -8 0
-24 -4 -35 -9z"/>
<path d="M6085 5250 c-3 -5 -1 -10 4 -10 6 0 11 5 11 10 0 6 -2 10 -4 10 -3 0
-8 -4 -11 -10z"/>
<path d="M6460 5245 c-19 -7 -28 -13 -20 -13 8 0 31 6 50 13 19 7 28 13 20 13
-8 0 -31 -6 -50 -13z"/>
<path d="M6118 5233 c7 -3 16 -2 19 1 4 3 -2 6 -13 5 -11 0 -14 -3 -6 -6z"/>
<path d="M6535 5220 c-13 -5 -14 -9 -5 -9 8 0 24 4 35 9 13 5 14 9 5 9 -8 0
-24 -4 -35 -9z"/>
<path d="M6330 5205 c-19 -7 -28 -13 -20 -13 8 0 31 6 50 13 19 7 28 13 20 13
-8 0 -31 -6 -50 -13z"/>
<path d="M6405 5180 c-29 -11 -42 -19 -30 -20 l20 -1 -20 -9 c-13 -5 -14 -9
-5 -9 8 0 24 4 35 9 l20 9 -20 1 c-12 1 1 9 30 20 28 10 43 18 35 18 -8 0 -37
-8 -65 -18z"/>
<path d="M6528 5193 c7 -3 16 -2 19 1 4 3 -2 6 -13 5 -11 0 -14 -3 -6 -6z"/>
<path d="M7862 5183 c-24 -8 -41 -17 -39 -19 4 -5 97 26 97 32 0 6 -11 4 -58
-13z"/>
<path d="M6095 5135 c-93 -30 -164 -54 -157 -54 13 -1 344 98 351 105 11 11
-38 -3 -194 -51z"/>
<path d="M6670 5165 c-36 -13 -60 -24 -54 -24 5 -1 41 10 80 23 38 14 62 24
54 24 -8 0 -44 -10 -80 -23z"/>
<path d="M7435 5148 c-49 -17 -304 -104 -565 -194 -261 -90 -481 -162 -488
-159 -7 3 -11 1 -8 -4 6 -9 -63 -33 -76 -25 -4 3 -8 0 -8 -6 0 -7 -7 -9 -16
-6 -10 4 -13 2 -8 -6 5 -8 -2 -9 -22 -4 -18 4 -24 3 -16 -2 11 -7 7 -11 -13
-16 -14 -4 -31 -4 -37 0 -7 5 -8 2 -3 -6 6 -10 3 -12 -13 -8 -14 4 -20 2 -16
-4 4 -6 -2 -8 -16 -3 -16 5 -20 4 -15 -5 5 -9 1 -10 -15 -5 -16 5 -20 4 -15
-5 5 -9 1 -10 -15 -5 -16 5 -20 4 -15 -5 5 -9 1 -10 -15 -5 -14 5 -20 3 -16
-3 3 -6 -15 -17 -41 -26 -54 -19 -64 -20 -43 -5 13 10 13 10 0 6 -95 -28 -179
-60 -175 -67 3 -4 -5 -6 -17 -2 -14 3 -19 1 -14 -6 4 -7 2 -10 -7 -6 -8 3
-394 -126 -858 -287 -464 -160 -884 -305 -932 -321 -49 -17 -86 -32 -84 -34 2
-2 50 12 107 31 57 19 105 33 107 31 3 -2 -26 -14 -64 -26 -93 -31 -686 -239
-689 -242 -1 -2 19 -4 44 -4 26 -1 101 -7 167 -12 l120 -11 209 70 c448 151
1569 553 2386 856 333 123 691 256 795 294 105 39 202 79 217 90 15 11 38 24
50 29 13 6 32 16 43 22 65 41 111 73 115 78 3 4 23 17 45 28 54 29 37 26 -70
-10z m-2655 -917 c-8 -5 -26 -11 -40 -15 -21 -5 -20 -3 5 9 32 15 60 20 35 6z
m-250 -85 c0 -6 -123 -47 -127 -42 -2 2 22 13 54 24 62 22 73 24 73 18z m-202
-71 c-8 -9 -241 -85 -245 -81 -4 4 222 84 241 85 5 1 7 -1 4 -4z"/>
<path d="M6105 5089 c-254 -79 -249 -78 -243 -84 3 -3 24 2 48 10 23 8 48 15
54 14 6 -1 -20 -12 -59 -24 -127 -43 -47 -26 107 22 92 29 143 50 132 53 -12
4 2 12 42 23 78 22 92 20 29 -3 -27 -10 -43 -18 -35 -18 26 0 117 36 95 38
-12 1 1 9 30 20 109 40 9 15 -200 -51z m-21 -29 c-28 -10 -66 -20 -85 -23 -19
-4 -2 4 36 18 39 13 77 23 85 23 8 0 -8 -8 -36 -18z"/>
<path d="M7752 5143 c-24 -8 -41 -17 -39 -19 4 -5 97 26 97 32 0 6 -11 4 -58
-13z"/>
<path d="M1515 5110 c10 -11 20 -20 23 -20 3 0 -3 9 -13 20 -10 11 -20 20 -23
20 -3 0 3 -9 13 -20z"/>
<path d="M6140 4999 c-222 -71 -409 -134 -414 -139 -7 -7 -1 -7 19 -1 17 6
208 67 425 137 217 69 397 128 399 130 13 12 -61 -10 -429 -127z"/>
<path d="M6685 5090 c-27 -10 -43 -18 -35 -18 8 0 38 8 65 18 28 10 43 18 35
18 -8 0 -37 -8 -65 -18z"/>
<path d="M7625 5095 c-25 -12 -26 -14 -5 -9 28 7 60 23 45 23 -5 0 -23 -6 -40
-14z"/>
<path d="M1550 5088 c0 -3 56 -51 125 -107 69 -56 125 -106 125 -111 0 -6 7
-10 16 -10 8 0 13 -4 10 -8 -3 -5 14 -24 37 -43 53 -44 450 -362 617 -494 69
-54 166 -131 215 -170 50 -40 124 -97 165 -128 41 -31 82 -64 91 -72 9 -8 21
-15 27 -15 6 0 17 -8 24 -19 7 -10 23 -21 34 -25 12 -4 34 -18 50 -32 15 -15
34 -27 41 -28 8 -1 45 -26 84 -54 38 -29 69 -50 69 -48 0 6 -1164 926 -1550
1226 -52 40 -114 89 -137 108 -24 19 -43 32 -43 30z"/>
<path d="M6350 5035 c-52 -18 -90 -34 -85 -34 6 -1 56 14 110 33 55 19 93 34
85 34 -8 0 -58 -15 -110 -33z"/>
<path d="M7502 5053 c-24 -8 -41 -17 -39 -19 4 -5 97 26 97 32 0 6 -11 4 -58
-13z"/>
<path d="M6195 4933 c-192 -63 -674 -220 -1070 -349 -1031 -337 -1545 -508
-1540 -512 6 -6 2857 924 2965 967 14 5 18 10 10 9 -8 0 -172 -52 -365 -115z"/>
<path d="M5985 4750 c-1933 -651 -2488 -840 -2482 -846 2 -2 124 37 272 86
158 53 278 88 290 84 17 -4 17 -3 5 6 -12 9 -9 10 15 6 23 -5 27 -4 15 5 -12
8 -9 9 15 5 17 -3 24 -3 16 1 -20 8 439 164 464 157 17 -4 18 -3 5 6 -12 9 -9
10 15 6 23 -5 27 -4 15 5 -12 8 -8 9 15 5 23 -5 27 -4 15 5 -12 8 -8 9 15 5
23 -5 27 -4 15 5 -12 8 -8 9 15 5 23 -5 27 -4 15 5 -12 8 -8 9 15 5 23 -5 27
-4 15 5 -12 8 -9 9 15 5 17 -3 23 -2 15 1 -20 8 296 114 317 106 12 -5 14 -3
8 6 -6 10 -2 11 15 6 17 -5 21 -4 15 6 -6 9 -2 11 13 7 14 -4 20 -2 16 4 -4 6
2 8 16 3 16 -5 20 -4 15 5 -5 9 -1 10 15 5 16 -5 20 -4 15 5 -5 9 -1 10 15 5
15 -5 20 -3 16 3 -8 14 26 24 49 16 12 -5 16 -4 11 4 -8 13 25 24 50 16 16 -5
17 -4 4 6 -12 9 -9 10 15 6 23 -5 27 -4 15 5 -12 8 -8 9 15 5 23 -5 27 -4 15
5 -12 8 -8 9 15 5 22 -5 26 -4 15 4 -13 9 -13 10 0 10 66 0 -23 -36 -454 -183
-314 -107 -499 -166 -511 -162 -17 6 -18 5 -5 -5 12 -9 9 -10 -15 -6 -19 4
-25 3 -17 -2 18 -12 -28 -25 -55 -16 -15 5 -16 4 -3 -6 12 -9 9 -10 -15 -6
-20 4 -25 3 -16 -2 18 -13 -378 -145 -405 -136 -16 5 -16 4 -4 -5 12 -9 13
-11 1 -11 -8 0 -12 -2 -9 -5 2 -3 44 9 93 25 49 17 98 28 109 24 18 -4 18 -3
6 6 -12 9 -9 10 15 6 23 -5 27 -4 15 5 -12 8 -8 9 15 5 24 -5 27 -4 15 5 -12
9 -11 10 8 6 14 -3 20 -1 15 6 -4 6 2 8 15 5 14 -4 20 -2 16 4 -5 7 3 9 22 4
23 -5 26 -4 14 5 -12 9 -11 10 8 6 14 -3 20 -1 15 6 -4 6 2 8 15 5 14 -4 20
-2 15 5 -4 6 2 8 15 5 14 -4 20 -2 15 5 -4 6 2 8 15 5 14 -4 20 -2 16 4 -4 6
2 8 16 3 16 -5 20 -4 15 5 -5 9 -1 10 15 5 16 -5 20 -4 15 5 -5 9 -1 10 15 5
16 -5 20 -4 15 5 -5 9 -1 10 15 5 16 -5 20 -4 15 5 -5 9 -1 10 15 5 16 -5 20
-4 15 5 -5 9 -1 10 16 5 19 -5 21 -4 9 5 -12 9 -9 10 15 6 23 -5 27 -4 15 5
-12 8 -8 9 15 5 23 -5 27 -4 15 5 -12 8 -8 9 15 5 24 -5 27 -4 15 5 -12 9 -11
10 8 6 30 -7 234 61 226 75 -4 6 2 8 16 3 16 -5 20 -4 15 5 -5 9 -1 10 15 5
16 -5 20 -4 15 5 -5 9 -1 10 15 5 16 -5 20 -4 15 5 -5 9 -1 10 15 5 16 -5 20
-4 15 5 -5 9 -1 10 15 5 16 -5 20 -4 15 5 -5 9 -1 10 15 5 17 -5 21 -4 15 6
-6 9 -4 11 8 6 22 -8 199 52 191 65 -4 6 2 8 16 3 16 -5 20 -4 15 5 -5 9 -1
10 15 5 16 -5 20 -4 15 5 -5 9 -1 10 15 5 16 -5 20 -4 15 5 -5 9 -1 10 15 5
16 -5 20 -4 15 5 -5 9 -1 10 15 5 16 -5 20 -4 15 5 -5 9 -1 10 15 5 16 -5 20
-4 15 5 -5 9 -1 10 15 5 16 -5 20 -4 15 5 -5 9 -1 10 15 5 17 -5 21 -4 15 6
-6 9 -3 11 8 6 10 -4 17 -2 17 4 0 6 7 8 16 5 10 -4 13 -2 8 6 -5 7 0 9 14 6
14 -4 20 -2 15 5 -4 6 2 8 15 5 14 -4 20 -2 15 5 -4 6 2 8 15 5 14 -4 20 -2
15 5 -4 6 2 8 15 5 12 -4 20 -3 18 1 -3 3 106 44 240 90 135 46 243 85 241 87
-2 3 -156 -48 -343 -111 -276 -95 -342 -114 -359 -105 -19 10 -19 10 3 6 14
-3 20 0 15 7 -4 6 2 8 15 5 14 -4 20 -2 15 5 -4 6 2 8 15 5 14 -4 20 -2 15 5
-4 6 2 8 15 5 14 -4 20 -2 15 5 -4 6 2 8 15 5 14 -4 20 -2 15 5 -4 6 2 8 15 5
14 -4 20 -2 15 5 -4 6 2 8 15 5 14 -4 20 -2 15 5 -4 6 2 8 15 5 14 -4 20 -2
15 5 -4 6 2 8 15 5 14 -4 20 -2 15 5 -4 6 2 8 15 5 12 -4 20 -3 18 1 -3 4 219
83 492 176 466 157 542 185 517 184 -5 0 -370 -121 -810 -269z"/>
<path d="M7375 5005 c-25 -12 -26 -14 -5 -9 28 7 60 23 45 23 -5 0 -23 -6 -40
-14z"/>
<path d="M3918 5003 c7 -3 16 -2 19 1 4 3 -2 6 -13 5 -11 0 -14 -3 -6 -6z"/>
<path d="M6015 5000 c-13 -5 -14 -9 -5 -9 8 0 24 4 35 9 13 5 14 9 5 9 -8 0
-24 -4 -35 -9z"/>
<path d="M3878 4993 c7 -3 16 -2 19 1 4 3 -2 6 -13 5 -11 0 -14 -3 -6 -6z"/>
<path d="M3815 4980 c-13 -5 -14 -9 -5 -9 8 0 24 4 35 9 13 5 14 9 5 9 -8 0
-24 -4 -35 -9z"/>
<path d="M6547 4969 c7 -7 15 -10 18 -7 3 3 -2 9 -12 12 -14 6 -15 5 -6 -5z"/>
<path d="M3658 4963 c7 -3 16 -2 19 1 4 3 -2 6 -13 5 -11 0 -14 -3 -6 -6z"/>
<path d="M3768 4963 c7 -3 16 -2 19 1 4 3 -2 6 -13 5 -11 0 -14 -3 -6 -6z"/>
<path d="M6517 4959 c7 -7 15 -10 18 -7 3 3 -2 9 -12 12 -14 6 -15 5 -6 -5z"/>
<path d="M7250 4960 c-8 -5 -10 -10 -5 -10 6 0 17 5 25 10 8 5 11 10 5 10 -5
0 -17 -5 -25 -10z"/>
<path d="M3618 4953 c7 -3 16 -2 19 1 4 3 -2 6 -13 5 -11 0 -14 -3 -6 -6z"/>
<path d="M5838 4945 c-20 -7 -39 -11 -42 -8 -3 4 -6 1 -6 -6 0 -13 10 -11 80
15 19 7 28 13 20 13 -8 0 -31 -6 -52 -14z"/>
<path d="M6440 4945 c24 -16 24 -16 2 -12 -12 3 -20 1 -16 -4 3 -5 -2 -9 -10
-9 -8 0 -18 5 -21 10 -3 6 -1 10 6 10 7 0 10 2 7 5 -2 3 -461 -146 -1019 -331
-558 -184 -1177 -390 -1377 -456 -200 -66 -362 -121 -360 -124 2 -2 141 42
309 97 193 63 324 101 359 103 40 3 49 2 32 -5 -13 -5 -36 -7 -50 -4 -24 5
-24 4 -7 -5 16 -8 13 -9 -15 -5 -28 4 -31 3 -15 -5 16 -8 13 -9 -15 -5 -28 4
-31 3 -15 -5 16 -8 13 -9 -15 -5 -28 4 -31 3 -15 -5 16 -8 13 -9 -15 -5 -28 4
-31 3 -15 -5 16 -8 13 -9 -15 -5 -28 4 -31 3 -15 -5 16 -8 13 -9 -15 -5 -28 4
-31 3 -15 -5 16 -8 13 -9 -15 -5 -28 4 -31 3 -15 -5 16 -8 13 -9 -15 -5 -28 4
-31 3 -15 -5 16 -8 13 -9 -15 -5 -28 4 -31 3 -15 -5 16 -8 13 -9 -15 -5 -28 4
-31 3 -15 -5 16 -8 13 -9 -15 -5 -28 4 -31 3 -15 -5 16 -8 13 -9 -15 -5 -28 4
-31 3 -15 -5 18 -9 17 -10 -6 -5 -16 3 -82 -14 -170 -44 -79 -27 -135 -50
-124 -51 16 -1 14 -4 -10 -15 -16 -7 -27 -14 -23 -14 8 -1 2878 959 2897 969
10 6 10 8 -3 13 -11 5 -15 3 -10 -5 7 -11 -3 -10 -51 7 -14 4 -13 2 5 -10z
m-50 -25 c8 -5 11 -10 5 -10 -5 0 -17 5 -25 10 -8 5 -10 10 -5 10 6 0 17 -5
25 -10z m-32 -9 c10 -6 8 -10 -9 -14 -12 -3 -30 -2 -38 4 -12 8 -10 8 8 3 16
-4 21 -3 17 5 -8 13 3 14 22 2z m-58 -21 c8 -5 11 -10 5 -10 -5 0 -17 5 -25
10 -8 5 -10 10 -5 10 6 0 17 -5 25 -10z m-30 -10 c8 -5 11 -10 5 -10 -5 0 -17
5 -25 10 -8 5 -10 10 -5 10 6 0 17 -5 25 -10z m-30 -10 c8 -5 11 -10 5 -10 -5
0 -17 5 -25 10 -8 5 -10 10 -5 10 6 0 17 -5 25 -10z m-30 -10 c8 -5 11 -10 5
-10 -5 0 -17 5 -25 10 -8 5 -10 10 -5 10 6 0 17 -5 25 -10z m-30 -10 c8 -5 11
-10 5 -10 -5 0 -17 5 -25 10 -8 5 -10 10 -5 10 6 0 17 -5 25 -10z m-30 -10 c8
-5 11 -10 5 -10 -5 0 -17 5 -25 10 -8 5 -10 10 -5 10 6 0 17 -5 25 -10z m-30
-10 c8 -5 11 -10 5 -10 -5 0 -17 5 -25 10 -8 5 -10 10 -5 10 6 0 17 -5 25 -10z
m-30 -10 c8 -5 11 -10 5 -10 -5 0 -17 5 -25 10 -8 5 -10 10 -5 10 6 0 17 -5
25 -10z m-30 -10 c8 -5 11 -10 5 -10 -5 0 -17 5 -25 10 -8 5 -10 10 -5 10 6 0
17 -5 25 -10z m-30 -10 c8 -5 11 -10 5 -10 -5 0 -17 5 -25 10 -8 5 -10 10 -5
10 6 0 17 -5 25 -10z m-30 -10 c8 -5 11 -10 5 -10 -5 0 -17 5 -25 10 -8 5 -10
10 -5 10 6 0 17 -5 25 -10z m-30 -10 c8 -5 11 -10 5 -10 -5 0 -17 5 -25 10 -8
5 -10 10 -5 10 6 0 17 -5 25 -10z m-30 -10 c8 -5 11 -10 5 -10 -5 0 -17 5 -25
10 -8 5 -10 10 -5 10 6 0 17 -5 25 -10z m-30 -10 c8 -5 11 -10 5 -10 -5 0 -17
5 -25 10 -8 5 -10 10 -5 10 6 0 17 -5 25 -10z m-30 -10 c8 -5 11 -10 5 -10 -5
0 -17 5 -25 10 -8 5 -10 10 -5 10 6 0 17 -5 25 -10z m-30 -10 c8 -5 11 -10 5
-10 -5 0 -17 5 -25 10 -8 5 -10 10 -5 10 6 0 17 -5 25 -10z m-30 -10 c8 -5 11
-10 5 -10 -5 0 -17 5 -25 10 -8 5 -10 10 -5 10 6 0 17 -5 25 -10z m-30 -10 c8
-5 11 -10 5 -10 -5 0 -17 5 -25 10 -8 5 -10 10 -5 10 6 0 17 -5 25 -10z m-30
-10 c8 -5 11 -10 5 -10 -5 0 -17 5 -25 10 -8 5 -10 10 -5 10 6 0 17 -5 25 -10z
m-30 -10 c8 -5 11 -10 5 -10 -5 0 -17 5 -25 10 -8 5 -10 10 -5 10 6 0 17 -5
25 -10z m-30 -10 c8 -5 11 -10 5 -10 -5 0 -17 5 -25 10 -8 5 -10 10 -5 10 6 0
17 -5 25 -10z m-30 -10 c8 -5 11 -10 5 -10 -5 0 -17 5 -25 10 -8 5 -10 10 -5
10 6 0 17 -5 25 -10z m-30 -10 c8 -5 11 -10 5 -10 -5 0 -17 5 -25 10 -8 5 -10
10 -5 10 6 0 17 -5 25 -10z m-30 -10 c8 -5 11 -10 5 -10 -5 0 -17 5 -25 10 -8
5 -10 10 -5 10 6 0 17 -5 25 -10z m-30 -10 c8 -5 11 -10 5 -10 -5 0 -17 5 -25
10 -8 5 -10 10 -5 10 6 0 17 -5 25 -10z m-30 -10 c8 -5 11 -10 5 -10 -5 0 -17
5 -25 10 -8 5 -10 10 -5 10 6 0 17 -5 25 -10z m-30 -10 c8 -5 11 -10 5 -10 -5
0 -17 5 -25 10 -8 5 -10 10 -5 10 6 0 17 -5 25 -10z m-240 -80 c8 -5 11 -10 5
-10 -5 0 -17 5 -25 10 -8 5 -10 10 -5 10 6 0 17 -5 25 -10z m-150 -50 c18 -12
2 -12 -25 0 -13 6 -15 9 -5 9 8 0 22 -4 30 -9z m-150 -40 c-12 -8 -12 -10 -1
-10 8 0 12 -2 10 -5 -3 -2 -16 -1 -29 2 -22 6 -23 7 -4 14 27 11 42 10 24 -1z
m-419 -137 c-11 -5 -11 -7 0 -15 9 -5 4 -6 -16 -2 -20 4 -26 3 -17 -4 11 -7
10 -10 -3 -16 -25 -9 -43 -6 -20 4 l20 9 -20 1 c-14 1 -10 5 15 15 19 7 40 13
45 13 6 0 4 -2 -4 -5z m-90 -30 c-10 -4 -10 -7 -1 -13 20 -13 -82 -42 -110
-32 l-24 9 26 6 c14 4 34 10 45 13 15 5 15 4 3 -5 -13 -9 -13 -11 0 -10 8 0
24 4 35 9 l20 9 -20 1 -20 1 20 9 c11 5 25 9 30 9 6 -1 4 -3 -4 -6z m-676
-249 c-71 -24 -134 -44 -140 -43 -14 1 237 87 255 87 8 0 -43 -19 -115 -44z"/>
<path d="M4378 4253 c7 -3 16 -2 19 1 4 3 -2 6 -13 5 -11 0 -14 -3 -6 -6z"/>
<path d="M4585 4940 c3 -5 13 -10 21 -10 8 0 12 5 9 10 -3 6 -13 10 -21 10 -8
0 -12 -4 -9 -10z"/>
<path d="M4550 4930 c20 -13 33 -13 25 0 -3 6 -14 10 -23 10 -15 0 -15 -2 -2
-10z"/>
<path d="M4515 4920 c3 -5 14 -10 23 -10 15 0 15 2 2 10 -20 13 -33 13 -25 0z"/>
<path d="M7140 4920 c-8 -5 -10 -10 -5 -10 6 0 17 5 25 10 8 5 11 10 5 10 -5
0 -17 -5 -25 -10z"/>
<path d="M4480 4910 c20 -13 33 -13 25 0 -3 6 -14 10 -23 10 -15 0 -15 -2 -2
-10z"/>
<path d="M4445 4900 c3 -5 14 -10 23 -10 15 0 15 2 2 10 -20 13 -33 13 -25 0z"/>
<path d="M4410 4890 c8 -5 20 -10 25 -10 6 0 3 5 -5 10 -8 5 -19 10 -25 10 -5
0 -3 -5 5 -10z"/>
<path d="M3698 4883 c7 -3 16 -2 19 1 4 3 -2 6 -13 5 -11 0 -14 -3 -6 -6z"/>
<path d="M4375 4880 c3 -5 11 -10 16 -10 6 0 7 5 4 10 -3 6 -11 10 -16 10 -6
0 -7 -4 -4 -10z"/>
<path d="M3635 4870 c-13 -5 -14 -9 -5 -9 8 0 24 4 35 9 13 5 14 9 5 9 -8 0
-24 -4 -35 -9z"/>
<path d="M4340 4870 c8 -5 20 -10 25 -10 6 0 3 5 -5 10 -8 5 -19 10 -25 10 -5
0 -3 -5 5 -10z"/>
<path d="M4490 4869 c0 -6 -10 -8 -22 -4 -22 6 -22 6 -4 -9 23 -18 18 -20 -18
-6 -18 6 -26 6 -26 -1 0 -6 -9 -8 -22 -4 -15 5 -20 4 -13 -3 6 -5 21 -13 34
-17 18 -5 22 -4 16 6 -6 9 -3 11 9 6 23 -9 68 2 60 14 -3 6 5 7 20 3 36 -9 33
2 -4 15 -20 7 -30 7 -30 0z"/>
<path d="M3528 4863 c7 -3 16 -2 19 1 4 3 -2 6 -13 5 -11 0 -14 -3 -6 -6z"/>
<path d="M4530 4659 c-377 -115 -747 -228 -822 -251 -76 -23 -136 -44 -134
-46 3 -2 347 100 766 227 443 135 771 229 784 226 11 -2 14 -2 6 2 -10 4 8 14
50 29 36 12 58 23 50 23 -8 0 -323 -94 -700 -210z"/>
<path d="M3588 4853 c7 -3 16 -2 19 1 4 3 -2 6 -13 5 -11 0 -14 -3 -6 -6z"/>
<path d="M4270 4850 c8 -5 20 -10 25 -10 6 0 3 5 -5 10 -8 5 -19 10 -25 10 -5
0 -3 -5 5 -10z"/>
<path d="M4345 4830 c5 -9 1 -10 -16 -5 -16 5 -21 4 -14 -3 16 -15 59 -26 50
-13 -5 8 2 10 22 6 32 -7 13 8 -26 20 -17 5 -21 4 -16 -5z"/>
<path d="M3535 4805 c-39 -14 -40 -14 -5 -8 41 7 82 22 60 22 -8 0 -33 -7 -55
-14z"/>
<path d="M4280 4808 c0 -6 -9 -8 -20 -5 -13 3 -18 1 -13 -6 4 -6 -2 -8 -15 -5
-12 4 -22 2 -22 -4 0 -6 -9 -8 -20 -5 -13 3 -18 1 -13 -6 4 -6 -2 -8 -15 -5
-14 4 -20 2 -16 -4 5 -7 -2 -9 -19 -6 -15 3 -24 1 -21 -3 3 -5 -3 -9 -13 -9
-15 0 -16 -2 -3 -10 20 -13 -1 -13 -35 0 -17 7 -24 7 -20 0 3 -6 -2 -10 -12
-11 -16 0 -16 -1 2 -9 28 -12 43 -12 25 1 -12 8 -10 9 10 5 36 -7 76 4 58 16
-9 7 -5 8 12 4 36 -7 76 4 58 16 -9 7 -5 8 12 4 36 -7 76 4 58 16 -9 7 -4 8
15 3 19 -4 26 -2 22 5 -4 7 2 9 19 4 36 -9 33 2 -4 15 -21 7 -30 7 -30 -1z"/>
<path d="M3795 4785 c-39 -14 -40 -14 -5 -8 41 7 82 22 60 22 -8 0 -33 -7 -55
-14z"/>
<path d="M3558 4783 c7 -3 16 -2 19 1 4 3 -2 6 -13 5 -11 0 -14 -3 -6 -6z"/>
<path d="M5395 4730 c-299 -97 -1674 -540 -1762 -568 -46 -14 -81 -27 -79 -30
3 -2 141 40 308 93 734 234 1733 557 1737 561 12 12 -41 -3 -204 -56z"/>
<path d="M6725 4765 l-60 -22 -300 -619 c-165 -341 -396 -819 -514 -1064 -118
-245 -272 -563 -342 -706 l-126 -261 -734 218 c-404 121 -1258 375 -1899 565
-641 191 -1167 348 -1168 349 -6 6 -14 88 -14 147 -1 37 -5 59 -14 62 -9 4
-11 13 -4 35 5 20 4 37 -6 55 -7 15 -11 45 -9 66 2 22 0 40 -5 40 -6 0 -6 10
0 25 6 15 6 25 0 25 -5 0 -9 8 -8 18 0 31 -12 144 -16 151 -3 4 -6 28 -7 54
-2 26 -6 47 -10 47 -4 0 -5 9 -2 20 3 13 0 20 -8 20 -12 0 -12 2 0 9 9 6 10
14 4 27 -6 11 -9 42 -9 69 1 28 -4 57 -11 66 -11 14 -11 19 4 36 18 20 23 19
753 -168 404 -104 749 -191 765 -195 33 -7 -55 67 -679 568 -216 174 -374 294
-381 290 -6 -4 -185 -112 -397 -239 -435 -263 -462 -284 -498 -400 -40 -130
-22 -284 51 -441 50 -108 109 -189 200 -278 125 -121 192 -157 424 -231 l119
-38 216 -760 c340 -1192 319 -1125 345 -1125 13 0 188 45 390 100 201 55 376
102 388 104 12 3 24 5 27 6 3 2 9 2 14 1 4 -1 14 4 22 10 8 6 14 8 14 4 0 -4
7 -2 15 5 8 6 19 9 24 6 5 -4 12 -2 16 3 3 6 12 8 20 4 8 -3 15 0 15 6 0 7 6
11 13 10 6 -1 19 1 27 4 8 4 25 8 37 10 12 2 25 6 29 9 3 4 12 4 19 2 7 -3 16
-1 19 5 4 6 13 8 21 4 8 -3 15 -1 15 5 0 6 9 8 20 5 11 -3 20 -1 20 5 0 5 6 9
13 9 29 -3 112 16 122 28 5 7 282 88 615 179 333 92 625 173 650 181 25 8 53
15 63 15 9 0 25 4 35 10 15 8 216 66 292 83 15 4 60 -4 105 -18 98 -31 110
-31 129 -3 19 27 21 49 3 23 -28 -37 -26 3 2 61 15 33 79 172 141 309 450 995
548 1210 550 1194 0 -6 -148 -344 -190 -434 -48 -102 -89 -207 -78 -198 7 6
48 19 91 29 61 14 74 20 60 28 -12 6 -18 6 -21 -2 -2 -8 -14 -9 -29 -6 -16 5
-24 3 -20 -3 4 -6 -4 -8 -20 -5 -18 3 -24 1 -19 -6 5 -8 1 -10 -9 -6 -9 4 -13
10 -8 14 4 4 109 31 232 61 123 29 219 55 214 56 -5 2 -103 -19 -217 -47 -114
-27 -213 -50 -219 -50 -24 0 19 19 58 26 34 6 37 8 20 16 -14 6 -8 7 20 3 31
-3 35 -2 20 5 -15 8 -11 9 20 5 34 -4 36 -3 16 5 -17 8 -41 7 -79 -2 -41 -9
-50 -14 -36 -19 16 -6 16 -8 2 -8 -20 -1 -37 21 -20 27 7 2 9 8 6 14 -5 7 3 9
22 4 23 -5 26 -4 14 4 -12 9 -6 10 25 6 31 -4 35 -3 20 4 -15 8 -11 9 20 5 36
-4 37 -3 13 6 -18 7 -39 7 -64 0 -35 -10 -54 -8 -42 4 7 7 18 10 1158 281 519
124 946 227 948 229 3 2 2 10 -1 17 -4 12 -1418 968 -1431 968 -3 0 -24 -35
-45 -77 -22 -43 -40 -75 -41 -72 0 3 34 81 75 174 41 92 75 169 75 171 0 8
-26 1 -85 -21z m-74 -358 c-10 -9 -11 -8 -5 6 3 10 9 15 12 12 3 -3 0 -11 -7
-18z m-4903 -221 c635 -162 743 -191 734 -194 -8 -2 -591 142 -967 239 -44 12
-118 25 -165 29 l-85 7 78 2 c67 1 120 -10 405 -83z m4773 -73 c-12 -20 -14
-14 -5 12 4 9 9 14 11 11 3 -2 0 -13 -6 -23z m-3994 -129 c-3 -3 -12 -4 -19
-1 -8 3 -5 6 6 6 11 1 17 -2 13 -5z m40 -10 c-3 -3 -12 -4 -19 -1 -8 3 -5 6 6
6 11 1 17 -2 13 -5z m3864 -61 c-11 -21 -20 -35 -21 -31 0 12 33 78 38 74 2
-2 -6 -21 -17 -43z m-101 -226 c-12 -26 -23 -47 -26 -47 -2 0 3 17 12 38 9 20
18 43 21 50 3 7 7 11 9 9 2 -2 -5 -25 -16 -50z m-4635 -547 c13 -5 14 -9 5 -9
-8 0 -24 4 -35 9 -13 5 -14 9 -5 9 8 0 24 -4 35 -9z m191 -57 c85 -25 152 -48
150 -50 -5 -5 -306 84 -314 92 -10 10 12 4 164 -42z m110 -69 c21 -5 67 -138
227 -648 24 -77 49 -142 54 -143 12 -4 480 98 1021 223 290 67 409 89 347 65
-11 -4 -208 -52 -438 -107 -230 -54 -414 -100 -409 -102 6 -2 38 4 71 13 34 9
78 13 99 11 26 -4 29 -3 12 2 -19 6 -5 12 72 30 105 24 151 28 78 7 -25 -7
-38 -13 -30 -14 8 0 38 6 65 13 36 10 43 15 25 16 -18 1 -11 6 25 16 28 8 61
12 75 9 37 -7 177 27 153 37 -12 5 -6 7 17 3 21 -2 82 7 150 24 63 16 118 26
123 22 4 -4 -236 -65 -533 -136 -298 -71 -537 -131 -532 -133 6 -2 37 4 70 12
63 17 119 21 72 6 -84 -27 58 4 506 110 279 66 509 118 512 115 7 -7 29 -1
-548 -140 -289 -70 -527 -129 -529 -131 -10 -9 45 3 560 126 442 106 548 128
569 120 l25 -10 -25 5 c-34 7 -135 -16 -118 -27 8 -4 -2 -5 -22 -2 -27 4 -31
3 -20 -5 11 -8 7 -10 -20 -5 -27 4 -31 3 -20 -5 11 -8 7 -10 -20 -5 -27 4 -31
3 -20 -5 11 -8 7 -10 -20 -5 -27 4 -31 3 -20 -5 11 -8 7 -10 -20 -5 -27 4 -32
3 -20 -6 12 -8 6 -10 -25 -5 -31 4 -35 3 -20 -5 15 -7 11 -8 -20 -5 -31 4 -35
3 -20 -5 15 -7 11 -8 -20 -5 -31 4 -35 3 -20 -5 15 -7 11 -8 -20 -5 -31 4 -35
3 -20 -5 15 -7 11 -8 -20 -5 -32 4 -36 3 -20 -5 16 -8 12 -9 -20 -5 -31 3 -35
2 -20 -5 15 -8 11 -9 -20 -5 -31 4 -36 3 -25 -5 11 -9 7 -10 -20 -5 -27 5 -31
4 -20 -5 11 -8 6 -9 -25 -5 -31 4 -35 3 -20 -5 15 -7 11 -8 -20 -5 -32 4 -36
3 -20 -5 16 -8 12 -9 -20 -5 -31 3 -35 2 -20 -5 15 -8 11 -9 -20 -5 -34 4 -36
3 -15 -5 21 -8 107 9 425 86 405 97 448 106 475 93 8 -4 26 -12 40 -17 24 -10
24 -11 2 -11 -29 -1 -914 -222 -909 -228 3 -2 92 17 198 42 107 26 203 48 214
49 12 1 26 6 33 10 7 4 19 5 27 2 7 -2 15 -1 17 4 2 5 21 11 43 14 22 2 40 5
40 6 0 1 11 3 25 6 60 10 335 77 340 83 3 3 15 6 28 7 52 2 -5 -16 -211 -67
-120 -30 -214 -55 -209 -57 5 -1 107 22 228 52 259 64 234 59 259 57 39 -3 -9
-18 -248 -77 -166 -41 -231 -61 -215 -65 36 -11 56 -9 33 2 -15 7 -10 8 20 4
31 -3 35 -2 20 5 -15 8 -11 9 20 5 31 -3 35 -2 20 5 -15 8 -11 9 20 5 31 -3
35 -2 20 5 -15 8 -11 9 20 5 31 -3 35 -2 20 5 -15 8 -11 9 20 5 31 -3 35 -2
20 5 -15 8 -11 9 20 5 31 -3 35 -2 20 5 -15 8 -11 9 20 5 31 -3 35 -2 20 5
-15 8 -11 9 20 5 31 -3 35 -2 20 5 -15 8 -11 9 20 5 31 -3 35 -2 20 5 -15 8
-11 9 20 5 31 -3 35 -2 20 5 -15 8 -11 9 20 5 29 -3 34 -2 20 5 -16 7 -17 9
-3 9 9 1 25 4 35 7 15 5 16 4 3 -6 -12 -9 -8 -10 20 -6 26 4 21 0 -20 -14 -30
-10 -64 -19 -75 -20 -17 0 -18 -2 -5 -11 12 -9 11 -10 -4 -5 -26 9 -170 -25
-154 -36 7 -4 -3 -5 -22 -2 -27 4 -31 3 -20 -5 11 -8 7 -10 -20 -5 -28 5 -32
3 -20 -6 13 -10 12 -11 -5 -5 -12 4 -205 -40 -473 -107 -305 -76 -446 -115
-430 -120 36 -10 56 -8 33 3 -16 8 -14 9 10 5 19 -3 269 55 662 153 549 138
634 156 659 147 31 -13 97 5 -1014 -277 -287 -72 -520 -134 -518 -136 2 -2
360 86 795 196 577 146 798 198 814 191 17 -6 19 -9 7 -14 -8 -3 -215 -57
-460 -120 -942 -242 -1043 -270 -1024 -277 28 -11 53 -10 29 2 -15 7 -10 8 20
4 31 -3 35 -2 20 5 -15 8 -11 9 20 5 31 -3 35 -2 20 5 -17 9 -15 10 10 6 26
-4 1369 327 1430 353 11 4 29 5 40 1 24 -9 71 5 -452 -130 -222 -57 -401 -105
-399 -107 2 -2 192 44 422 103 231 59 429 108 441 108 11 1 20 4 18 7 -2 3 10
3 28 1 28 -4 29 -6 12 -13 -11 -5 -418 -112 -905 -239 -909 -236 -953 -248
-934 -249 11 -1 523 130 1457 372 240 62 437 111 437 107 0 -4 -403 -112 -895
-240 -492 -128 -893 -235 -891 -237 4 -4 343 83 1379 353 357 93 445 113 470
106 l32 -9 -40 -11 c-22 -6 -299 -79 -615 -162 -316 -83 -751 -198 -967 -256
-215 -57 -395 -104 -399 -104 -4 0 -5 -3 -2 -6 7 -6 124 24 1248 318 421 110
779 201 797 202 62 6 54 -11 -14 -28 -144 -36 -1878 -498 -1881 -501 -2 -2 14
-3 35 -2 21 1 47 -2 58 -7 12 -4 10 -1 -5 8 -24 15 -24 15 -3 16 12 0 25 -4
28 -10 3 -5 14 -10 23 -10 12 1 10 5 -8 15 -24 14 -24 14 -3 15 12 0 25 -5 28
-10 3 -5 14 -10 23 -10 12 1 10 5 -8 15 -29 17 -9 20 22 4 11 -6 22 -8 25 -5
3 3 -5 10 -18 15 -23 9 -23 10 -2 10 12 1 25 -3 28 -9 3 -5 14 -10 23 -10 12
1 10 5 -8 15 -24 14 -24 14 -3 15 12 0 25 -4 28 -10 3 -5 14 -10 23 -10 13 1
11 5 -8 16 -27 17 -31 17 43 -2 21 -5 20 -4 -3 10 -29 17 -13 21 22 5 15 -6
32 -7 48 -1 l25 10 -25 10 c-22 9 -23 11 -4 11 11 1 25 -4 31 -10 6 -6 17 -9
25 -6 8 3 4 8 -12 15 -14 6 -19 11 -12 11 7 1 22 -4 33 -10 11 -6 25 -8 32 -6
7 3 1 9 -13 15 -14 6 -18 11 -9 11 8 1 20 -4 26 -10 6 -6 19 -9 29 -6 17 3 16
5 -6 15 -17 7 -20 11 -8 11 9 1 20 -3 23 -9 3 -5 14 -10 23 -10 15 1 15 2 -2
15 -11 8 -15 15 -9 15 7 0 15 -4 18 -10 3 -5 16 -10 28 -10 22 1 22 1 3 15
-11 8 -15 15 -10 15 6 0 15 -5 21 -11 6 -6 19 -9 29 -6 17 3 16 5 -6 15 -14 6
-19 11 -12 11 7 1 20 -4 30 -10 13 -8 167 29 697 171 374 99 689 183 700 186
13 4 17 3 10 -4 -5 -5 -460 -130 -1010 -277 -550 -147 -1051 -281 -1113 -298
-61 -17 -110 -32 -108 -34 6 -6 398 96 2135 558 80 21 140 35 135 30 -5 -4
-328 -94 -719 -199 -1150 -310 -1315 -355 -1311 -360 2 -2 57 10 121 28 64 17
127 28 138 25 18 -5 19 -4 7 5 -12 9 -8 10 20 6 27 -5 31 -3 20 5 -12 8 -9 10
12 6 17 -2 25 0 21 6 -4 6 5 7 23 3 23 -5 26 -4 14 5 -12 8 -7 9 20 5 27 -5
31 -3 20 5 -11 8 -7 9 20 5 27 -5 31 -3 20 5 -12 8 -9 9 13 4 21 -4 27 -3 21
6 -5 9 1 10 20 5 19 -5 26 -3 21 4 -4 7 3 9 22 5 22 -5 25 -4 13 5 -12 9 -7
10 20 5 27 -5 32 -4 20 5 -12 9 -7 10 20 5 27 -5 31 -4 20 5 -12 8 -8 9 14 4
21 -5 27 -4 22 5 -6 9 0 10 21 6 22 -5 25 -4 13 5 -12 9 -7 10 20 5 27 -5 31
-4 20 5 -12 8 -8 9 14 4 21 -5 27 -4 22 5 -6 9 0 10 20 5 19 -5 25 -4 20 5 -6
9 0 10 21 6 22 -5 25 -4 13 4 -11 8 -7 10 20 5 27 -4 32 -3 20 5 -12 9 -9 10
14 5 18 -4 27 -3 23 3 -4 6 4 8 20 5 16 -3 24 -1 20 5 -4 6 4 8 20 5 19 -4 24
-2 18 8 -5 9 -4 11 4 6 14 -9 73 3 66 13 -2 5 7 6 22 3 19 -4 24 -2 18 8 -5 9
-4 11 4 6 14 -9 73 3 66 13 -2 5 7 6 22 3 18 -3 24 -1 19 6 -4 7 -2 10 7 6 8
-3 207 47 441 110 235 64 430 116 434 116 39 0 -94 -39 -526 -156 -329 -88
-508 -141 -500 -147 8 -5 5 -6 -9 -2 -30 8 -268 -55 -251 -67 9 -6 6 -7 -9 -3
-29 8 -119 -15 -101 -26 8 -6 -1 -7 -22 -3 -28 4 -32 3 -20 -6 12 -9 11 -10
-7 -5 -30 8 -79 -5 -61 -16 8 -6 -1 -7 -22 -3 -28 4 -32 3 -20 -6 12 -9 11
-10 -7 -5 -30 8 -79 -5 -61 -16 8 -6 -1 -7 -22 -3 -28 4 -32 3 -20 -6 12 -9
11 -10 -7 -5 -31 8 -79 -5 -61 -17 8 -6 1 -7 -22 -3 -27 5 -32 4 -20 -5 12 -9
11 -10 -7 -5 -31 8 -79 -5 -61 -17 8 -6 1 -7 -22 -3 -28 5 -32 4 -20 -5 12
-10 10 -11 -10 -6 -35 8 -76 -4 -58 -16 8 -6 1 -7 -22 -3 -27 5 -32 4 -20 -5
12 -9 7 -10 -20 -5 -23 4 -30 3 -22 -3 18 -12 -22 -23 -58 -16 -20 5 -22 3
-10 -6 12 -9 7 -10 -20 -5 -27 5 -32 4 -20 -5 12 -9 9 -10 -13 -5 -17 3 -26 2
-23 -4 8 -12 -49 -25 -65 -15 -7 4 -9 3 -6 -2 3 -5 -86 -35 -198 -65 -184 -50
-203 -54 -213 -38 -7 11 -422 1411 -489 1651 -5 17 -2 17 43 3 27 -8 58 -18
70 -21z m114 1 c19 -7 28 -13 20 -13 -8 0 -31 6 -50 13 -19 7 -28 13 -20 13 8
0 31 -6 50 -13z m1557 -521 c-3 -3 -12 -4 -19 -1 -8 3 -5 6 6 6 11 1 17 -2 13
-5z m-40 -10 c-3 -3 -12 -4 -19 -1 -8 3 -5 6 6 6 11 1 17 -2 13 -5z m-82 -20
c-27 -7 -57 -13 -65 -13 -21 1 70 27 95 27 11 0 -2 -6 -30 -14z m232 10 c-3
-3 -12 -4 -19 -1 -8 3 -5 6 6 6 11 1 17 -2 13 -5z m-40 -10 c-3 -3 -12 -4 -19
-1 -8 3 -5 6 6 6 11 1 17 -2 13 -5z m-40 -10 c-3 -3 -12 -4 -19 -1 -8 3 -5 6
6 6 11 1 17 -2 13 -5z m-40 -10 c-3 -3 -12 -4 -19 -1 -8 3 -5 6 6 6 11 1 17
-2 13 -5z m-282 -20 c-27 -7 -57 -13 -65 -13 -21 1 70 27 95 27 11 0 -2 -6
-30 -14z m242 10 c-3 -3 -12 -4 -19 -1 -8 3 -5 6 6 6 11 1 17 -2 13 -5z m-82
-20 c-27 -7 -57 -13 -65 -13 -21 1 70 27 95 27 11 0 -2 -6 -30 -14z m-88 -20
c-3 -3 -12 -4 -19 -1 -8 3 -5 6 6 6 11 1 17 -2 13 -5z m-40 -10 c-3 -3 -12 -4
-19 -1 -8 3 -5 6 6 6 11 1 17 -2 13 -5z m-42 -10 c-28 -11 -519 -124 -527
-122 -12 4 487 126 517 126 11 0 16 -1 10 -4z m432 -160 c-3 -3 -12 -4 -19 -1
-8 3 -5 6 6 6 11 1 17 -2 13 -5z m-40 -10 c-3 -3 -12 -4 -19 -1 -8 3 -5 6 6 6
11 1 17 -2 13 -5z m-40 -10 c-3 -3 -12 -4 -19 -1 -8 3 -5 6 6 6 11 1 17 -2 13
-5z m-40 -10 c-3 -3 -12 -4 -19 -1 -8 3 -5 6 6 6 11 1 17 -2 13 -5z m-40 -10
c-3 -3 -12 -4 -19 -1 -8 3 -5 6 6 6 11 1 17 -2 13 -5z m-40 -10 c-3 -3 -12 -4
-19 -1 -8 3 -5 6 6 6 11 1 17 -2 13 -5z m-40 -10 c-3 -3 -12 -4 -19 -1 -8 3
-5 6 6 6 11 1 17 -2 13 -5z m-40 -10 c-3 -3 -12 -4 -19 -1 -8 3 -5 6 6 6 11 1
17 -2 13 -5z m-40 -10 c-3 -3 -12 -4 -19 -1 -8 3 -5 6 6 6 11 1 17 -2 13 -5z
m-40 -10 c-3 -3 -12 -4 -19 -1 -8 3 -5 6 6 6 11 1 17 -2 13 -5z m-40 -10 c-3
-3 -12 -4 -19 -1 -8 3 -5 6 6 6 11 1 17 -2 13 -5z m-40 -10 c-3 -3 -12 -4 -19
-1 -8 3 -5 6 6 6 11 1 17 -2 13 -5z m-40 -10 c-3 -3 -12 -4 -19 -1 -8 3 -5 6
6 6 11 1 17 -2 13 -5z m-40 -10 c-3 -3 -12 -4 -19 -1 -8 3 -5 6 6 6 11 1 17
-2 13 -5z m-40 -10 c-3 -3 -12 -4 -19 -1 -8 3 -5 6 6 6 11 1 17 -2 13 -5z
m-40 -10 c-3 -3 -12 -4 -19 -1 -8 3 -5 6 6 6 11 1 17 -2 13 -5z m-40 -10 c-3
-3 -12 -4 -19 -1 -8 3 -5 6 6 6 11 1 17 -2 13 -5z m470 0 c-3 -3 -12 -4 -19
-1 -8 3 -5 6 6 6 11 1 17 -2 13 -5z m-510 -10 c-3 -3 -12 -4 -19 -1 -8 3 -5 6
6 6 11 1 17 -2 13 -5z m470 0 c-3 -3 -12 -4 -19 -1 -8 3 -5 6 6 6 11 1 17 -2
13 -5z m-510 -10 c-3 -3 -12 -4 -19 -1 -8 3 -5 6 6 6 11 1 17 -2 13 -5z m470
0 c-3 -3 -12 -4 -19 -1 -8 3 -5 6 6 6 11 1 17 -2 13 -5z m-510 -10 c-3 -3 -12
-4 -19 -1 -8 3 -5 6 6 6 11 1 17 -2 13 -5z m470 0 c-3 -3 -12 -4 -19 -1 -8 3
-5 6 6 6 11 1 17 -2 13 -5z m-40 -10 c-3 -3 -12 -4 -19 -1 -8 3 -5 6 6 6 11 1
17 -2 13 -5z m-40 -10 c-3 -3 -12 -4 -19 -1 -8 3 -5 6 6 6 11 1 17 -2 13 -5z
m-40 -10 c-3 -3 -12 -4 -19 -1 -8 3 -5 6 6 6 11 1 17 -2 13 -5z m-70 -20 c-3
-3 -12 -4 -19 -1 -8 3 -5 6 6 6 11 1 17 -2 13 -5z m-40 -10 c-3 -3 -12 -4 -19
-1 -8 3 -5 6 6 6 11 1 17 -2 13 -5z m-40 -10 c-3 -3 -12 -4 -19 -1 -8 3 -5 6
6 6 11 1 17 -2 13 -5z m-40 -10 c-3 -3 -12 -4 -19 -1 -8 3 -5 6 6 6 11 1 17
-2 13 -5z m-40 -10 c-3 -3 -12 -4 -19 -1 -8 3 -5 6 6 6 11 1 17 -2 13 -5z
m-40 -10 c-3 -3 -12 -4 -19 -1 -8 3 -5 6 6 6 11 1 17 -2 13 -5z m-40 -10 c-3
-3 -12 -4 -19 -1 -8 3 -5 6 6 6 11 1 17 -2 13 -5z m590 -70 c-3 -3 -12 -4 -19
-1 -8 3 -5 6 6 6 11 1 17 -2 13 -5z m-150 -40 c-3 -3 -12 -4 -19 -1 -8 3 -5 6
6 6 11 1 17 -2 13 -5z m-292 -84 c8 -13 -5 -13 -25 0 -13 8 -13 10 2 10 9 0
20 -4 23 -10z"/>
<path d="M3938 2403 c7 -3 16 -2 19 1 4 3 -2 6 -13 5 -11 0 -14 -3 -6 -6z"/>
<path d="M3268 2393 c7 -3 16 -2 19 1 4 3 -2 6 -13 5 -11 0 -14 -3 -6 -6z"/>
<path d="M3898 2393 c7 -3 16 -2 19 1 4 3 -2 6 -13 5 -11 0 -14 -3 -6 -6z"/>
<path d="M3228 2383 c7 -3 16 -2 19 1 4 3 -2 6 -13 5 -11 0 -14 -3 -6 -6z"/>
<path d="M3858 2383 c7 -3 16 -2 19 1 4 3 -2 6 -13 5 -11 0 -14 -3 -6 -6z"/>
<path d="M3818 2373 c7 -3 16 -2 19 1 4 3 -2 6 -13 5 -11 0 -14 -3 -6 -6z"/>
<path d="M3728 2353 c7 -3 16 -2 19 1 4 3 -2 6 -13 5 -11 0 -14 -3 -6 -6z"/>
<path d="M3058 2343 c7 -3 16 -2 19 1 4 3 -2 6 -13 5 -11 0 -14 -3 -6 -6z"/>
<path d="M3688 2343 c7 -3 16 -2 19 1 4 3 -2 6 -13 5 -11 0 -14 -3 -6 -6z"/>
<path d="M3018 2333 c7 -3 16 -2 19 1 4 3 -2 6 -13 5 -11 0 -14 -3 -6 -6z"/>
<path d="M3648 2333 c7 -3 16 -2 19 1 4 3 -2 6 -13 5 -11 0 -14 -3 -6 -6z"/>
<path d="M3608 2323 c7 -3 16 -2 19 1 4 3 -2 6 -13 5 -11 0 -14 -3 -6 -6z"/>
<path d="M2928 2313 c7 -3 16 -2 19 1 4 3 -2 6 -13 5 -11 0 -14 -3 -6 -6z"/>
<path d="M3568 2313 c7 -3 16 -2 19 1 4 3 -2 6 -13 5 -11 0 -14 -3 -6 -6z"/>
<path d="M2888 2303 c7 -3 16 -2 19 1 4 3 -2 6 -13 5 -11 0 -14 -3 -6 -6z"/>
<path d="M3528 2303 c7 -3 16 -2 19 1 4 3 -2 6 -13 5 -11 0 -14 -3 -6 -6z"/>
<path d="M2758 2293 c7 -3 16 -2 19 1 4 3 -2 6 -13 5 -11 0 -14 -3 -6 -6z"/>
<path d="M2848 2293 c7 -3 16 -2 19 1 4 3 -2 6 -13 5 -11 0 -14 -3 -6 -6z"/>
<path d="M2718 2283 c7 -3 16 -2 19 1 4 3 -2 6 -13 5 -11 0 -14 -3 -6 -6z"/>
<path d="M2808 2283 c7 -3 16 -2 19 1 4 3 -2 6 -13 5 -11 0 -14 -3 -6 -6z"/>
<path d="M2668 2273 c6 -2 18 -2 25 0 6 3 1 5 -13 5 -14 0 -19 -2 -12 -5z"/>
<path d="M3608 2253 c7 -3 16 -2 19 1 4 3 -2 6 -13 5 -11 0 -14 -3 -6 -6z"/>
<path d="M3568 2243 c7 -3 16 -2 19 1 4 3 -2 6 -13 5 -11 0 -14 -3 -6 -6z"/>
<path d="M3025 2230 c11 -5 27 -9 35 -9 9 0 8 4 -5 9 -11 5 -27 9 -35 9 -9 0
-8 -4 5 -9z"/>
<path d="M3528 2233 c7 -3 16 -2 19 1 4 3 -2 6 -13 5 -11 0 -14 -3 -6 -6z"/>
<path d="M2758 2223 c7 -3 16 -2 19 1 4 3 -2 6 -13 5 -11 0 -14 -3 -6 -6z"/>
<path d="M2985 2220 c11 -5 27 -9 35 -9 9 0 8 4 -5 9 -11 5 -27 9 -35 9 -9 0
-8 -4 5 -9z"/>
<path d="M3488 2223 c7 -3 16 -2 19 1 4 3 -2 6 -13 5 -11 0 -14 -3 -6 -6z"/>
<path d="M3618 2223 c7 -3 16 -2 19 1 4 3 -2 6 -13 5 -11 0 -14 -3 -6 -6z"/>
<path d="M2628 2213 c7 -3 16 -2 19 1 4 3 -2 6 -13 5 -11 0 -14 -3 -6 -6z"/>
<path d="M2718 2213 c7 -3 16 -2 19 1 4 3 -2 6 -13 5 -11 0 -14 -3 -6 -6z"/>
<path d="M3448 2213 c7 -3 16 -2 19 1 4 3 -2 6 -13 5 -11 0 -14 -3 -6 -6z"/>
<path d="M3578 2213 c7 -3 16 -2 19 1 4 3 -2 6 -13 5 -11 0 -14 -3 -6 -6z"/>
<path d="M3658 2213 c7 -3 16 -2 19 1 4 3 -2 6 -13 5 -11 0 -14 -3 -6 -6z"/>
<path d="M2588 2203 c7 -3 16 -2 19 1 4 3 -2 6 -13 5 -11 0 -14 -3 -6 -6z"/>
<path d="M2678 2203 c7 -3 16 -2 19 1 4 3 -2 6 -13 5 -11 0 -14 -3 -6 -6z"/>
<path d="M2968 2203 c7 -3 16 -2 19 1 4 3 -2 6 -13 5 -11 0 -14 -3 -6 -6z"/>
<path d="M3408 2203 c7 -3 16 -2 19 1 4 3 -2 6 -13 5 -11 0 -14 -3 -6 -6z"/>
<path d="M3538 2203 c7 -3 16 -2 19 1 4 3 -2 6 -13 5 -11 0 -14 -3 -6 -6z"/>
<path d="M3618 2203 c7 -3 16 -2 19 1 4 3 -2 6 -13 5 -11 0 -14 -3 -6 -6z"/>
<path d="M2928 2193 c7 -3 16 -2 19 1 4 3 -2 6 -13 5 -11 0 -14 -3 -6 -6z"/>
<path d="M3368 2193 c7 -3 16 -2 19 1 4 3 -2 6 -13 5 -11 0 -14 -3 -6 -6z"/>
<path d="M3498 2193 c7 -3 16 -2 19 1 4 3 -2 6 -13 5 -11 0 -14 -3 -6 -6z"/>
<path d="M3578 2193 c7 -3 16 -2 19 1 4 3 -2 6 -13 5 -11 0 -14 -3 -6 -6z"/>
<path d="M2718 2183 c7 -3 16 -2 19 1 4 3 -2 6 -13 5 -11 0 -14 -3 -6 -6z"/>
<path d="M3328 2183 c7 -3 16 -2 19 1 4 3 -2 6 -13 5 -11 0 -14 -3 -6 -6z"/>
<path d="M3458 2183 c7 -3 16 -2 19 1 4 3 -2 6 -13 5 -11 0 -14 -3 -6 -6z"/>
<path d="M3538 2183 c7 -3 16 -2 19 1 4 3 -2 6 -13 5 -11 0 -14 -3 -6 -6z"/>
<path d="M2678 2173 c7 -3 16 -2 19 1 4 3 -2 6 -13 5 -11 0 -14 -3 -6 -6z"/>
<path d="M3288 2173 c7 -3 16 -2 19 1 4 3 -2 6 -13 5 -11 0 -14 -3 -6 -6z"/>
<path d="M3418 2173 c7 -3 16 -2 19 1 4 3 -2 6 -13 5 -11 0 -14 -3 -6 -6z"/>
<path d="M3498 2173 c7 -3 16 -2 19 1 4 3 -2 6 -13 5 -11 0 -14 -3 -6 -6z"/>
<path d="M2638 2163 c7 -3 16 -2 19 1 4 3 -2 6 -13 5 -11 0 -14 -3 -6 -6z"/>
<path d="M3248 2163 c7 -3 16 -2 19 1 4 3 -2 6 -13 5 -11 0 -14 -3 -6 -6z"/>
<path d="M3378 2163 c7 -3 16 -2 19 1 4 3 -2 6 -13 5 -11 0 -14 -3 -6 -6z"/>
<path d="M3458 2163 c7 -3 16 -2 19 1 4 3 -2 6 -13 5 -11 0 -14 -3 -6 -6z"/>
<path d="M3068 2153 c7 -3 16 -2 19 1 4 3 -2 6 -13 5 -11 0 -14 -3 -6 -6z"/>
<path d="M3338 2153 c7 -3 16 -2 19 1 4 3 -2 6 -13 5 -11 0 -14 -3 -6 -6z"/>
<path d="M3418 2153 c7 -3 16 -2 19 1 4 3 -2 6 -13 5 -11 0 -14 -3 -6 -6z"/>
<path d="M2990 2140 c-20 -6 -21 -8 -5 -8 11 0 31 4 45 8 20 6 21 8 5 8 -11 0
-31 -4 -45 -8z"/>
<path d="M3298 2143 c7 -3 16 -2 19 1 4 3 -2 6 -13 5 -11 0 -14 -3 -6 -6z"/>
<path d="M3258 2133 c7 -3 16 -2 19 1 4 3 -2 6 -13 5 -11 0 -14 -3 -6 -6z"/>
<path d="M3218 2123 c7 -3 16 -2 19 1 4 3 -2 6 -13 5 -11 0 -14 -3 -6 -6z"/>
<path d="M3178 2113 c7 -3 16 -2 19 1 4 3 -2 6 -13 5 -11 0 -14 -3 -6 -6z"/>
<path d="M3138 2103 c7 -3 16 -2 19 1 4 3 -2 6 -13 5 -11 0 -14 -3 -6 -6z"/>
<path d="M3098 2093 c7 -3 16 -2 19 1 4 3 -2 6 -13 5 -11 0 -14 -3 -6 -6z"/>
<path d="M3058 2083 c7 -3 16 -2 19 1 4 3 -2 6 -13 5 -11 0 -14 -3 -6 -6z"/>
<path d="M3018 2073 c7 -3 16 -2 19 1 4 3 -2 6 -13 5 -11 0 -14 -3 -6 -6z"/>
<path d="M2978 2063 c7 -3 16 -2 19 1 4 3 -2 6 -13 5 -11 0 -14 -3 -6 -6z"/>
<path d="M2938 2053 c7 -3 16 -2 19 1 4 3 -2 6 -13 5 -11 0 -14 -3 -6 -6z"/>
<path d="M3618 2013 c7 -3 16 -2 19 1 4 3 -2 6 -13 5 -11 0 -14 -3 -6 -6z"/>
<path d="M2898 2003 c7 -3 16 -2 19 1 4 3 -2 6 -13 5 -11 0 -14 -3 -6 -6z"/>
<path d="M3578 2003 c7 -3 16 -2 19 1 4 3 -2 6 -13 5 -11 0 -14 -3 -6 -6z"/>
<path d="M2938 1993 c7 -3 16 -2 19 1 4 3 -2 6 -13 5 -11 0 -14 -3 -6 -6z"/>
<path d="M3538 1993 c7 -3 16 -2 19 1 4 3 -2 6 -13 5 -11 0 -14 -3 -6 -6z"/>
<path d="M2898 1983 c7 -3 16 -2 19 1 4 3 -2 6 -13 5 -11 0 -14 -3 -6 -6z"/>
<path d="M3437 1973 c-32 -9 -56 -17 -54 -20 5 -4 129 26 136 33 8 7 -23 2
-82 -13z"/>
<path d="M2858 1973 c7 -3 16 -2 19 1 4 3 -2 6 -13 5 -11 0 -14 -3 -6 -6z"/>
<path d="M2818 1963 c7 -3 16 -2 19 1 4 3 -2 6 -13 5 -11 0 -14 -3 -6 -6z"/>
<path d="M2778 1953 c7 -3 16 -2 19 1 4 3 -2 6 -13 5 -11 0 -14 -3 -6 -6z"/>
<path d="M2738 1943 c7 -3 16 -2 19 1 4 3 -2 6 -13 5 -11 0 -14 -3 -6 -6z"/>
<path d="M3348 1943 c7 -3 16 -2 19 1 4 3 -2 6 -13 5 -11 0 -14 -3 -6 -6z"/>
<path d="M2698 1933 c7 -3 16 -2 19 1 4 3 -2 6 -13 5 -11 0 -14 -3 -6 -6z"/>
<path d="M3308 1933 c7 -3 16 -2 19 1 4 3 -2 6 -13 5 -11 0 -14 -3 -6 -6z"/>
<path d="M3268 1923 c7 -3 16 -2 19 1 4 3 -2 6 -13 5 -11 0 -14 -3 -6 -6z"/>
<path d="M3228 1913 c7 -3 16 -2 19 1 4 3 -2 6 -13 5 -11 0 -14 -3 -6 -6z"/>
<path d="M3188 1903 c7 -3 16 -2 19 1 4 3 -2 6 -13 5 -11 0 -14 -3 -6 -6z"/>
<path d="M2748 1893 c7 -3 16 -2 19 1 4 3 -2 6 -13 5 -11 0 -14 -3 -6 -6z"/>
<path d="M2708 1883 c7 -3 16 -2 19 1 4 3 -2 6 -13 5 -11 0 -14 -3 -6 -6z"/>
<path d="M2875 1870 c11 -5 27 -9 35 -9 9 0 8 4 -5 9 -11 5 -27 9 -35 9 -9 0
-8 -4 5 -9z"/>
<path d="M2835 1860 c11 -5 27 -9 35 -9 9 0 8 4 -5 9 -11 5 -27 9 -35 9 -9 0
-8 -4 5 -9z"/>
<path d="M2788 1853 c7 -3 16 -2 19 1 4 3 -2 6 -13 5 -11 0 -14 -3 -6 -6z"/>
<path d="M2698 1733 c7 -3 16 -2 19 1 4 3 -2 6 -13 5 -11 0 -14 -3 -6 -6z"/>
<path d="M2808 1733 c7 -3 16 -2 19 1 4 3 -2 6 -13 5 -11 0 -14 -3 -6 -6z"/>
<path d="M2768 1723 c7 -3 16 -2 19 1 4 3 -2 6 -13 5 -11 0 -14 -3 -6 -6z"/>
<path d="M2728 1713 c7 -3 16 -2 19 1 4 3 -2 6 -13 5 -11 0 -14 -3 -6 -6z"/>
<path d="M2818 1633 c7 -3 16 -2 19 1 4 3 -2 6 -13 5 -11 0 -14 -3 -6 -6z"/>
<path d="M2778 1623 c7 -3 16 -2 19 1 4 3 -2 6 -13 5 -11 0 -14 -3 -6 -6z"/>
<path d="M2868 1553 c7 -3 16 -2 19 1 4 3 -2 6 -13 5 -11 0 -14 -3 -6 -6z"/>
<path d="M2798 1533 c7 -3 16 -2 19 1 4 3 -2 6 -13 5 -11 0 -14 -3 -6 -6z"/>
<path d="M2628 1523 c7 -3 16 -2 19 1 4 3 -2 6 -13 5 -11 0 -14 -3 -6 -6z"/>
<path d="M3705 4760 c-13 -5 -14 -9 -5 -9 8 0 24 4 35 9 13 5 14 9 5 9 -8 0
-24 -4 -35 -9z"/>
<path d="M3658 4743 c7 -3 16 -2 19 1 4 3 -2 6 -13 5 -11 0 -14 -3 -6 -6z"/>
<path d="M3588 4723 c7 -3 16 -2 19 1 4 3 -2 6 -13 5 -11 0 -14 -3 -6 -6z"/>
<path d="M3955 4710 c-11 -5 -15 -9 -8 -9 6 -1 20 -4 30 -7 15 -5 16 -4 3 6
-12 9 -8 10 20 6 26 -5 30 -4 15 3 -25 12 -35 12 -60 1z"/>
<path d="M3885 4690 c-11 -5 -15 -9 -8 -9 6 -1 20 -4 30 -7 15 -5 16 -4 3 6
-12 9 -8 10 20 6 26 -5 30 -4 15 3 -25 12 -35 12 -60 1z"/>
<path d="M4025 4690 c-13 -5 -14 -9 -5 -9 8 0 24 4 35 9 13 5 14 9 5 9 -8 0
-24 -4 -35 -9z"/>
<path d="M4225 4680 c-13 -5 -14 -9 -5 -9 8 0 24 4 35 9 13 5 14 9 5 9 -8 0
-24 -4 -35 -9z"/>
<path d="M3850 4670 c8 -5 22 -9 30 -9 10 0 8 3 -5 9 -27 12 -43 12 -25 0z"/>
<path d="M3955 4670 c-13 -5 -14 -9 -5 -9 8 0 24 4 35 9 13 5 14 9 5 9 -8 0
-24 -4 -35 -9z"/>
<path d="M6480 4671 c0 -7 -4 -10 -9 -7 -5 3 -40 -6 -77 -20 -38 -14 -310
-113 -604 -219 -294 -107 -872 -316 -1285 -465 -412 -150 -763 -277 -780 -282
-16 -6 -39 -18 -50 -26 -19 -13 -19 -14 7 -9 17 2 25 0 21 -6 -4 -6 4 -8 20
-5 16 3 24 1 20 -5 -4 -6 4 -7 21 -3 20 5 26 4 20 -5 -5 -9 0 -10 20 -5 15 4
26 2 26 -3 0 -6 6 -8 14 -5 7 3 413 -97 902 -222 489 -125 897 -227 908 -228
10 -1 26 10 35 24 9 13 11 21 4 17 -34 -21 -10 35 115 270 76 142 226 422 332
623 196 369 270 502 270 487 0 -5 -42 -91 -92 -190 -51 -100 -92 -188 -92
-194 1 -7 -2 -10 -7 -7 -9 5 -13 -9 -10 -35 2 -7 -2 -10 -8 -6 -7 4 -8 0 -4
-11 4 -12 3 -15 -5 -10 -8 5 -10 1 -5 -10 4 -10 2 -15 -3 -11 -5 3 -10 -2 -10
-12 0 -10 6 -18 12 -18 7 0 10 6 8 12 -3 6 2 12 11 12 19 0 20 2 -11 -60 -14
-29 -22 -47 -16 -42 15 15 215 405 210 410 -2 3 -35 -56 -74 -129 -38 -74 -72
-129 -75 -124 -4 6 -8 5 -11 -3 -3 -9 -6 -9 -11 3 -4 13 -1 16 14 13 15 -3 19
0 15 11 -4 10 -2 13 6 8 8 -5 9 -2 5 10 -5 11 -3 15 5 10 8 -5 9 -2 5 10 -5
11 -3 15 5 10 8 -5 9 -2 5 10 -4 9 -3 15 2 12 11 -7 23 22 14 36 -3 6 -2 8 4
5 10 -6 50 70 46 85 -2 5 2 8 8 8 5 0 7 5 4 10 -3 6 -1 10 5 10 6 0 8 5 5 10
-3 6 -1 10 6 10 7 0 10 3 6 6 -3 4 9 37 28 75 19 37 32 75 29 82 -3 8 -1 18 5
22 7 4 9 -1 5 -12 -3 -10 7 4 21 30 15 27 24 52 21 55 -3 3 -6 0 -6 -7z m-250
-542 c0 8 3 12 6 8 3 -3 1 -14 -5 -24 -8 -14 -10 -14 -11 -3 0 13 -1 13 -10 0
-11 -17 -13 -9 -4 15 5 13 8 14 15 3 7 -11 9 -10 9 1z"/>
<path d="M3815 4660 c27 -12 43 -12 25 0 -8 5 -22 9 -30 9 -10 0 -8 -3 5 -9z"/>
<path d="M4155 4660 c-13 -5 -14 -9 -5 -9 8 0 24 4 35 9 13 5 14 9 5 9 -8 0
-24 -4 -35 -9z"/>
<path d="M4638 4663 c7 -3 16 -2 19 1 4 3 -2 6 -13 5 -11 0 -14 -3 -6 -6z"/>
<path d="M3885 4650 c-13 -5 -14 -9 -5 -9 8 0 24 4 35 9 13 5 14 9 5 9 -8 0
-24 -4 -35 -9z"/>
<path d="M3745 4640 c27 -12 43 -12 25 0 -8 5 -22 9 -30 9 -10 0 -8 -3 5 -9z"/>
<path d="M2210 4636 c0 -2 8 -10 18 -17 15 -13 16 -12 3 4 -13 16 -21 21 -21
13z"/>
<path d="M3815 4630 c-13 -5 -14 -9 -5 -9 8 0 24 4 35 9 13 5 14 9 5 9 -8 0
-24 -4 -35 -9z"/>
<path d="M4055 4630 c-13 -5 -14 -9 -5 -9 8 0 24 4 35 9 13 5 14 9 5 9 -8 0
-24 -4 -35 -9z"/>
<path d="M3675 4620 c27 -12 43 -12 25 0 -8 5 -22 9 -30 9 -10 0 -8 -3 5 -9z"/>
<path d="M3985 4610 c-13 -5 -14 -9 -5 -9 8 0 24 4 35 9 13 5 14 9 5 9 -8 0
-24 -4 -35 -9z"/>
<path d="M2250 4606 c0 -2 8 -10 18 -17 15 -13 16 -12 3 4 -13 16 -21 21 -21
13z"/>
<path d="M3738 4603 c7 -3 16 -2 19 1 4 3 -2 6 -13 5 -11 0 -14 -3 -6 -6z"/>
<path d="M3785 4575 c-38 -13 -65 -23 -60 -24 6 0 44 10 85 23 41 13 68 24 60
24 -8 0 -46 -10 -85 -23z"/>
<path d="M3908 4583 c7 -3 16 -2 19 1 4 3 -2 6 -13 5 -11 0 -14 -3 -6 -6z"/>
<path d="M3808 4553 c7 -3 16 -2 19 1 4 3 -2 6 -13 5 -11 0 -14 -3 -6 -6z"/>
<path d="M3665 4540 c-13 -5 -14 -9 -5 -9 8 0 24 4 35 9 13 5 14 9 5 9 -8 0
-24 -4 -35 -9z"/>
<path d="M3738 4533 c7 -3 16 -2 19 1 4 3 -2 6 -13 5 -11 0 -14 -3 -6 -6z"/>
<path d="M3760 4515 c-19 -7 -28 -13 -20 -13 8 0 31 6 50 13 19 7 28 13 20 13
-8 0 -31 -6 -50 -13z"/>
<path d="M6427 4495 c-9 -19 -15 -35 -12 -35 7 0 37 61 33 66 -3 2 -12 -12
-21 -31z"/>
<path d="M3675 4490 c-13 -5 -14 -9 -5 -9 8 0 24 4 35 9 13 5 14 9 5 9 -8 0
-24 -4 -35 -9z"/>
<path d="M4325 4470 c-27 -10 -43 -18 -35 -18 8 0 38 8 65 18 28 10 43 18 35
18 -8 0 -37 -8 -65 -18z"/>
<path d="M4165 4420 c-27 -10 -43 -18 -35 -18 8 0 38 8 65 18 28 10 43 18 35
18 -8 0 -37 -8 -65 -18z"/>
<path d="M4005 4370 c-13 -5 -14 -9 -5 -9 8 0 24 4 35 9 13 5 14 9 5 9 -8 0
-24 -4 -35 -9z"/>
<path d="M3695 4340 c-27 -10 -43 -18 -35 -18 8 0 38 8 65 18 28 10 43 18 35
18 -8 0 -37 -8 -65 -18z"/>
<path d="M3838 4313 c7 -3 16 -2 19 1 4 3 -2 6 -13 5 -11 0 -14 -3 -6 -6z"/>
<path d="M3560 4275 c-19 -7 -28 -13 -20 -13 8 0 31 6 50 13 19 7 28 13 20 13
-8 0 -31 -6 -50 -13z"/>
<path d="M4535 4235 c-25 -12 -26 -14 -5 -9 28 7 60 23 45 23 -5 0 -23 -6 -40
-14z"/>
<path d="M6249 4079 c-38 -78 -69 -143 -67 -145 2 -2 36 62 76 141 39 80 70
145 67 145 -3 0 -37 -63 -76 -141z"/>
<path d="M6296 4123 c-6 -14 -5 -15 5 -6 7 7 10 15 7 18 -3 3 -9 -2 -12 -12z"/>
<path d="M6230 3989 c-12 -23 -20 -43 -18 -45 3 -2 14 17 26 41 27 56 20 60
-8 4z"/>
<path d="M3762 3953 c-73 -25 -132 -47 -129 -49 4 -4 267 82 275 91 10 10 -15
3 -146 -42z"/>
<path d="M3685 3870 c-13 -6 -15 -9 -5 -9 8 0 22 4 30 9 18 12 2 12 -25 0z"/>
<path d="M5950 3690 c-6 -11 -8 -20 -6 -20 3 0 10 9 16 20 6 11 8 20 6 20 -3
0 -10 -9 -16 -20z"/>
<path d="M3655 3614 c28 -7 55 -13 60 -13 17 2 -69 27 -90 27 -11 0 3 -6 30
-14z"/>
<path d="M3738 3593 c7 -3 16 -2 19 1 4 3 -2 6 -13 5 -11 0 -14 -3 -6 -6z"/>
<path d="M3778 3583 c7 -3 16 -2 19 1 4 3 -2 6 -13 5 -11 0 -14 -3 -6 -6z"/>
<path d="M3818 3573 c7 -3 16 -2 19 1 4 3 -2 6 -13 5 -11 0 -14 -3 -6 -6z"/>
<path d="M3548 3563 c7 -3 16 -2 19 1 4 3 -2 6 -13 5 -11 0 -14 -3 -6 -6z"/>
<path d="M3588 3553 c7 -3 16 -2 19 1 4 3 -2 6 -13 5 -11 0 -14 -3 -6 -6z"/>
<path d="M3628 3543 c7 -3 16 -2 19 1 4 3 -2 6 -13 5 -11 0 -14 -3 -6 -6z"/>
<path d="M3668 3533 c7 -3 16 -2 19 1 4 3 -2 6 -13 5 -11 0 -14 -3 -6 -6z"/>
<path d="M5845 3490 c-14 -27 -23 -50 -20 -50 2 0 16 23 30 50 14 28 23 50 20
50 -2 0 -16 -22 -30 -50z"/>
<path d="M3735 3516 c22 -7 56 -16 75 -19 33 -6 33 -6 -5 7 -22 7 -56 16 -75
19 -33 6 -33 6 5 -7z"/>
<path d="M3858 3483 c7 -3 16 -2 19 1 4 3 -2 6 -13 5 -11 0 -14 -3 -6 -6z"/>
<path d="M3898 3473 c7 -3 16 -2 19 1 4 3 -2 6 -13 5 -11 0 -14 -3 -6 -6z"/>
<path d="M3938 3463 c7 -3 16 -2 19 1 4 3 -2 6 -13 5 -11 0 -14 -3 -6 -6z"/>
<path d="M5735 3280 c-14 -27 -23 -50 -20 -50 2 0 16 23 30 50 14 28 23 50 20
50 -2 0 -16 -22 -30 -50z"/>
<path d="M7038 3223 c7 -3 16 -2 19 1 4 3 -2 6 -13 5 -11 0 -14 -3 -6 -6z"/>
<path d="M6998 3213 c7 -3 16 -2 19 1 4 3 -2 6 -13 5 -11 0 -14 -3 -6 -6z"/>
<path d="M6958 3203 c7 -3 16 -2 19 1 4 3 -2 6 -13 5 -11 0 -14 -3 -6 -6z"/>
<path d="M6568 3193 c7 -3 16 -2 19 1 4 3 -2 6 -13 5 -11 0 -14 -3 -6 -6z"/>
<path d="M6918 3193 c7 -3 16 -2 19 1 4 3 -2 6 -13 5 -11 0 -14 -3 -6 -6z"/>
<path d="M6698 3183 c7 -3 16 -2 19 1 4 3 -2 6 -13 5 -11 0 -14 -3 -6 -6z"/>
<path d="M6868 3183 c6 -2 18 -2 25 0 6 3 1 5 -13 5 -14 0 -19 -2 -12 -5z"/>
<path d="M6658 3173 c7 -3 16 -2 19 1 4 3 -2 6 -13 5 -11 0 -14 -3 -6 -6z"/>
<path d="M6828 3173 c7 -3 16 -2 19 1 4 3 -2 6 -13 5 -11 0 -14 -3 -6 -6z"/>
<path d="M6618 3163 c7 -3 16 -2 19 1 4 3 -2 6 -13 5 -11 0 -14 -3 -6 -6z"/>
<path d="M6788 3163 c7 -3 16 -2 19 1 4 3 -2 6 -13 5 -11 0 -14 -3 -6 -6z"/>
<path d="M6398 3153 c7 -3 16 -2 19 1 4 3 -2 6 -13 5 -11 0 -14 -3 -6 -6z"/>
<path d="M6585 3150 c11 -5 27 -9 35 -9 9 0 8 4 -5 9 -11 5 -27 9 -35 9 -9 0
-8 -4 5 -9z"/>
<path d="M6748 3153 c7 -3 16 -2 19 1 4 3 -2 6 -13 5 -11 0 -14 -3 -6 -6z"/>
<path d="M6358 3143 c7 -3 16 -2 19 1 4 3 -2 6 -13 5 -11 0 -14 -3 -6 -6z"/>
<path d="M6528 3143 c7 -3 16 -2 19 1 4 3 -2 6 -13 5 -11 0 -14 -3 -6 -6z"/>
<path d="M6590 3120 c-58 -15 -98 -28 -90 -29 8 0 65 12 125 28 61 16 101 29
90 29 -11 0 -67 -13 -125 -28z"/>
<path d="M6308 3133 c6 -2 18 -2 25 0 6 3 1 5 -13 5 -14 0 -19 -2 -12 -5z"/>
<path d="M6488 3133 c7 -3 16 -2 19 1 4 3 -2 6 -13 5 -11 0 -14 -3 -6 -6z"/>
<path d="M6568 3133 c7 -3 16 -2 19 1 4 3 -2 6 -13 5 -11 0 -14 -3 -6 -6z"/>
<path d="M6268 3123 c7 -3 16 -2 19 1 4 3 -2 6 -13 5 -11 0 -14 -3 -6 -6z"/>
<path d="M6448 3123 c7 -3 16 -2 19 1 4 3 -2 6 -13 5 -11 0 -14 -3 -6 -6z"/>
<path d="M6228 3113 c7 -3 16 -2 19 1 4 3 -2 6 -13 5 -11 0 -14 -3 -6 -6z"/>
<path d="M6408 3113 c7 -3 16 -2 19 1 4 3 -2 6 -13 5 -11 0 -14 -3 -6 -6z"/>
<path d="M6188 3103 c7 -3 16 -2 19 1 4 3 -2 6 -13 5 -11 0 -14 -3 -6 -6z"/>
<path d="M6290 3091 c-47 -13 -60 -20 -45 -24 11 -3 2 -4 -20 -2 -34 4 -36 3
-16 -5 17 -8 41 -7 79 2 43 9 51 14 36 20 -12 5 -5 6 21 3 31 -3 35 -2 20 5
-15 8 -11 9 20 5 29 -3 34 -2 20 5 -27 12 -40 11 -115 -9z m7 -17 c-3 -3 -12
-4 -19 -1 -8 3 -5 6 6 6 11 1 17 -2 13 -5z"/>
<path d="M6635 3035 c-262 -67 -646 -155 -654 -151 -5 3 -11 -2 -13 -12 -4
-16 49 -4 377 79 210 53 389 99 396 102 33 13 -21 4 -106 -18z"/>
<path d="M6347 3029 c7 -7 15 -10 18 -7 3 3 -2 9 -12 12 -14 6 -15 5 -6 -5z"/>
<path d="M7078 3033 c7 -3 16 -2 19 1 4 3 -2 6 -13 5 -11 0 -14 -3 -6 -6z"/>
<path d="M6295 3020 c3 -5 16 -10 28 -10 18 0 19 2 7 10 -20 13 -43 13 -35 0z"/>
<path d="M6990 3020 c0 -6 7 -10 15 -10 8 0 15 2 15 4 0 2 -7 6 -15 10 -8 3
-15 1 -15 -4z"/>
<path d="M7038 3023 c7 -3 16 -2 19 1 4 3 -2 6 -13 5 -11 0 -14 -3 -6 -6z"/>
<path d="M6255 3010 c3 -5 13 -10 21 -10 8 0 12 5 9 10 -3 6 -13 10 -21 10 -8
0 -12 -4 -9 -10z"/>
<path d="M6945 3010 c3 -5 14 -10 23 -10 15 0 15 2 2 10 -20 13 -33 13 -25 0z"/>
<path d="M6215 3000 c3 -5 14 -10 23 -10 15 0 15 2 2 10 -20 13 -33 13 -25 0z"/>
<path d="M6906 2999 c5 -9 -1 -10 -20 -5 -20 5 -26 4 -20 -5 5 -9 -1 -10 -20
-5 -20 5 -26 4 -20 -5 5 -9 -1 -10 -20 -5 -19 5 -26 3 -21 -4 5 -7 -2 -9 -21
-4 -19 5 -25 4 -20 -5 6 -9 0 -10 -20 -5 -19 5 -25 4 -20 -5 6 -9 0 -10 -20
-5 -19 5 -25 4 -20 -5 6 -9 0 -10 -20 -5 -19 5 -25 4 -20 -5 6 -9 0 -10 -20
-5 -19 5 -25 4 -20 -4 5 -8 -2 -10 -25 -5 -21 4 -30 2 -26 -4 4 -6 -4 -8 -20
-5 -16 3 -24 1 -20 -5 4 -6 -4 -8 -20 -5 -19 4 -24 2 -18 -8 5 -9 4 -11 -3 -6
-14 9 -84 -3 -77 -14 2 -4 -7 -5 -22 -2 -16 3 -24 1 -20 -5 4 -6 -4 -8 -20 -5
-16 3 -24 1 -20 -5 4 -6 -4 -8 -20 -5 -16 3 -24 1 -20 -5 4 -6 -4 -8 -20 -5
-18 3 -24 1 -19 -6 4 -7 2 -10 -7 -6 -8 3 -68 -9 -135 -25 -118 -30 -167 -38
-127 -21 18 8 18 9 2 9 -18 1 -42 -41 -27 -47 5 -2 233 53 509 122 275 69 503
126 508 126 10 0 -19 20 -30 20 -5 0 -5 -5 -1 -11z"/>
<path d="M6175 2990 c3 -5 14 -10 23 -10 15 0 15 2 2 10 -20 13 -33 13 -25 0z"/>
<path d="M7018 2973 c7 -3 16 -2 19 1 4 3 -2 6 -13 5 -11 0 -14 -3 -6 -6z"/>
<path d="M6978 2963 c7 -3 16 -2 19 1 4 3 -2 6 -13 5 -11 0 -14 -3 -6 -6z"/>
<path d="M6558 2953 c7 -3 16 -2 19 1 4 3 -2 6 -13 5 -11 0 -14 -3 -6 -6z"/>
<path d="M6938 2953 c7 -3 16 -2 19 1 4 3 -2 6 -13 5 -11 0 -14 -3 -6 -6z"/>
<path d="M6408 2943 c7 -3 16 -2 19 1 4 3 -2 6 -13 5 -11 0 -14 -3 -6 -6z"/>
<path d="M6518 2943 c7 -3 16 -2 19 1 4 3 -2 6 -13 5 -11 0 -14 -3 -6 -6z"/>
<path d="M6898 2943 c7 -3 16 -2 19 1 4 3 -2 6 -13 5 -11 0 -14 -3 -6 -6z"/>
<path d="M6478 2933 c7 -3 16 -2 19 1 4 3 -2 6 -13 5 -11 0 -14 -3 -6 -6z"/>
<path d="M6858 2933 c7 -3 16 -2 19 1 4 3 -2 6 -13 5 -11 0 -14 -3 -6 -6z"/>
<path d="M6328 2923 c7 -3 16 -2 19 1 4 3 -2 6 -13 5 -11 0 -14 -3 -6 -6z"/>
<path d="M6438 2923 c7 -3 16 -2 19 1 4 3 -2 6 -13 5 -11 0 -14 -3 -6 -6z"/>
<path d="M6818 2923 c7 -3 16 -2 19 1 4 3 -2 6 -13 5 -11 0 -14 -3 -6 -6z"/>
<path d="M6985 2920 c11 -5 27 -9 35 -9 9 0 8 4 -5 9 -11 5 -27 9 -35 9 -9 0
-8 -4 5 -9z"/>
<path d="M6288 2913 c7 -3 16 -2 19 1 4 3 -2 6 -13 5 -11 0 -14 -3 -6 -6z"/>
<path d="M6398 2913 c7 -3 16 -2 19 1 4 3 -2 6 -13 5 -11 0 -14 -3 -6 -6z"/>
<path d="M6778 2913 c7 -3 16 -2 19 1 4 3 -2 6 -13 5 -11 0 -14 -3 -6 -6z"/>
<path d="M6940 2909 c12 -8 10 -10 -9 -5 -20 4 -554 -124 -997 -240 -34 -9
-65 -23 -71 -34 -12 -18 30 -8 899 216 203 52 247 71 178 73 -13 1 -13 0 0
-10z"/>
<path d="M6248 2903 c7 -3 16 -2 19 1 4 3 -2 6 -13 5 -11 0 -14 -3 -6 -6z"/>
<path d="M6358 2903 c7 -3 16 -2 19 1 4 3 -2 6 -13 5 -11 0 -14 -3 -6 -6z"/>
<path d="M6738 2903 c7 -3 16 -2 19 1 4 3 -2 6 -13 5 -11 0 -14 -3 -6 -6z"/>
<path d="M6208 2893 c7 -3 16 -2 19 1 4 3 -2 6 -13 5 -11 0 -14 -3 -6 -6z"/>
<path d="M6318 2893 c7 -3 16 -2 19 1 4 3 -2 6 -13 5 -11 0 -14 -3 -6 -6z"/>
<path d="M6698 2893 c7 -3 16 -2 19 1 4 3 -2 6 -13 5 -11 0 -14 -3 -6 -6z"/>
<path d="M7178 2893 c7 -3 16 -2 19 1 4 3 -2 6 -13 5 -11 0 -14 -3 -6 -6z"/>
<path d="M6168 2883 c7 -3 16 -2 19 1 4 3 -2 6 -13 5 -11 0 -14 -3 -6 -6z"/>
<path d="M6278 2883 c7 -3 16 -2 19 1 4 3 -2 6 -13 5 -11 0 -14 -3 -6 -6z"/>
<path d="M6658 2883 c7 -3 16 -2 19 1 4 3 -2 6 -13 5 -11 0 -14 -3 -6 -6z"/>
<path d="M7138 2883 c7 -3 16 -2 19 1 4 3 -2 6 -13 5 -11 0 -14 -3 -6 -6z"/>
<path d="M6128 2873 c7 -3 16 -2 19 1 4 3 -2 6 -13 5 -11 0 -14 -3 -6 -6z"/>
<path d="M6238 2873 c7 -3 16 -2 19 1 4 3 -2 6 -13 5 -11 0 -14 -3 -6 -6z"/>
<path d="M6250 2785 c-201 -51 -358 -94 -350 -94 16 -1 732 178 739 185 10 10
-44 -3 -389 -91z"/>
<path d="M7098 2873 c7 -3 16 -2 19 1 4 3 -2 6 -13 5 -11 0 -14 -3 -6 -6z"/>
<path d="M6078 2863 c7 -3 16 -2 19 1 4 3 -2 6 -13 5 -11 0 -14 -3 -6 -6z"/>
<path d="M6198 2863 c7 -3 16 -2 19 1 4 3 -2 6 -13 5 -11 0 -14 -3 -6 -6z"/>
<path d="M6441 2710 c-553 -144 -648 -170 -614 -170 14 0 1247 321 1252 326
11 11 -67 -8 -638 -156z"/>
<path d="M7148 2863 c7 -3 16 -2 19 1 4 3 -2 6 -13 5 -11 0 -14 -3 -6 -6z"/>
<path d="M5993 2847 c-23 -7 -45 -15 -48 -19 -7 -7 107 21 114 28 7 7 -22 3
-66 -9z"/>
<path d="M6158 2853 c7 -3 16 -2 19 1 4 3 -2 6 -13 5 -11 0 -14 -3 -6 -6z"/>
<path d="M6118 2843 c7 -3 16 -2 19 1 4 3 -2 6 -13 5 -11 0 -14 -3 -6 -6z"/>
<path d="M7238 2843 c7 -3 16 -2 19 1 4 3 -2 6 -13 5 -11 0 -14 -3 -6 -6z"/>
<path d="M7395 2724 c-252 -67 -462 -122 -465 -122 -3 0 -7 -1 -10 -2 -3 -1
-18 -4 -35 -6 -16 -3 -282 -73 -590 -156 -308 -83 -567 -151 -575 -152 -8 0
-35 -47 -63 -111 -61 -138 -63 -145 -46 -123 8 10 48 28 89 42 159 51 591 167
600 161 12 -8 80 16 80 28 0 4 5 5 10 2 6 -4 17 -1 25 5 8 7 15 9 15 5 0 -4 7
-2 15 5 8 6 19 9 24 6 5 -4 12 -2 16 3 3 6 12 8 20 4 8 -3 15 0 15 7 0 7 7 10
15 7 8 -4 17 -2 21 4 3 6 12 8 20 5 8 -3 14 -2 14 3 0 7 95 34 125 36 6 0 15
3 20 7 12 7 130 39 160 44 11 1 21 3 23 4 1 2 5 3 10 5 4 1 14 4 22 8 8 3 241
70 518 148 304 87 502 148 502 155 0 11 -77 81 -105 96 -5 3 -217 -50 -470
-118z"/>
<path d="M6078 2833 c7 -3 16 -2 19 1 4 3 -2 6 -13 5 -11 0 -14 -3 -6 -6z"/>
<path d="M7140 2824 c-631 -167 -1326 -344 -1336 -340 -8 3 -13 2 -12 -2 1 -4
-3 -18 -10 -32 -11 -21 -11 -22 0 -9 8 9 143 49 328 98 554 145 1105 293 1109
297 8 7 -23 2 -79 -12z"/>
<path d="M6038 2823 c7 -3 16 -2 19 1 4 3 -2 6 -13 5 -11 0 -14 -3 -6 -6z"/>
<path d="M6998 2823 c7 -3 16 -2 19 1 4 3 -2 6 -13 5 -11 0 -14 -3 -6 -6z"/>
<path d="M5998 2813 c7 -3 16 -2 19 1 4 3 -2 6 -13 5 -11 0 -14 -3 -6 -6z"/>
<path d="M6958 2813 c7 -3 16 -2 19 1 4 3 -2 6 -13 5 -11 0 -14 -3 -6 -6z"/>
<path d="M5941 2806 c2 -2 18 -6 34 -10 22 -5 26 -4 15 4 -14 9 -59 15 -49 6z"/>
<path d="M6918 2803 c7 -3 16 -2 19 1 4 3 -2 6 -13 5 -11 0 -14 -3 -6 -6z"/>
<path d="M6797 2778 c-43 -11 -76 -22 -74 -25 5 -4 169 36 176 43 8 8 -24 2
-102 -18z"/>
<path d="M7128 2773 c7 -3 16 -2 19 1 4 3 -2 6 -13 5 -11 0 -14 -3 -6 -6z"/>
<path d="M6580 2635 c-868 -230 -818 -215 -823 -236 -3 -11 -3 -19 0 -19 13 0
1169 313 1173 317 3 3 -8 3 -24 -1 -91 -22 -74 -11 29 18 160 47 183 54 165
54 -8 0 -242 -60 -520 -133z m215 35 c-11 -5 -27 -9 -35 -9 -9 0 -8 4 5 9 11
5 27 9 35 9 9 0 8 -4 -5 -9z m-58 -16 c-3 -3 -12 -4 -19 -1 -8 3 -5 6 6 6 11
1 17 -2 13 -5z m-80 -20 c-3 -3 -12 -4 -19 -1 -8 3 -5 6 6 6 11 1 17 -2 13 -5z"/>
<path d="M7278 2763 c7 -3 16 -2 19 1 4 3 -2 6 -13 5 -11 0 -14 -3 -6 -6z"/>
<path d="M6498 2753 c7 -3 16 -2 19 1 4 3 -2 6 -13 5 -11 0 -14 -3 -6 -6z"/>
<path d="M7238 2753 c7 -3 16 -2 19 1 4 3 -2 6 -13 5 -11 0 -14 -3 -6 -6z"/>
<path d="M6458 2743 c7 -3 16 -2 19 1 4 3 -2 6 -13 5 -11 0 -14 -3 -6 -6z"/>
<path d="M6270 2639 c-228 -59 -425 -110 -437 -111 -13 -1 -25 -8 -27 -15 -4
-9 1 -10 17 -3 12 5 216 60 452 121 237 61 432 113 434 115 11 10 -54 -5 -439
-107z"/>
<path d="M7105 2724 c-302 -82 -1342 -357 -1352 -357 -7 0 -15 -7 -18 -15 -3
-9 0 -12 7 -9 7 2 324 88 703 191 380 102 710 192 735 200 74 23 22 16 -75
-10z"/>
<path d="M6418 2733 c7 -3 16 -2 19 1 4 3 -2 6 -13 5 -11 0 -14 -3 -6 -6z"/>
<path d="M6378 2723 c7 -3 16 -2 19 1 4 3 -2 6 -13 5 -11 0 -14 -3 -6 -6z"/>
<path d="M6338 2713 c7 -3 16 -2 19 1 4 3 -2 6 -13 5 -11 0 -14 -3 -6 -6z"/>
<path d="M6237 2693 c-32 -9 -56 -17 -54 -20 5 -4 129 26 136 33 8 7 -23 2
-82 -13z"/>
<path d="M6948 2703 c7 -3 16 -2 19 1 4 3 -2 6 -13 5 -11 0 -14 -3 -6 -6z"/>
<path d="M7038 2673 c7 -3 16 -2 19 1 4 3 -2 6 -13 5 -11 0 -14 -3 -6 -6z"/>
<path d="M6148 2663 c7 -3 16 -2 19 1 4 3 -2 6 -13 5 -11 0 -14 -3 -6 -6z"/>
<path d="M6975 2660 c-13 -5 -14 -9 -5 -9 8 0 24 4 35 9 13 5 14 9 5 9 -8 0
-24 -4 -35 -9z"/>
<path d="M6108 2653 c7 -3 16 -2 19 1 4 3 -2 6 -13 5 -11 0 -14 -3 -6 -6z"/>
<path d="M6068 2643 c7 -3 16 -2 19 1 4 3 -2 6 -13 5 -11 0 -14 -3 -6 -6z"/>
<path d="M6325 2488 c-528 -141 -626 -171 -610 -186 5 -5 649 171 655 179 3 4
12 7 20 6 27 -2 90 15 90 25 0 6 7 8 15 4 8 -3 28 0 43 6 15 6 33 10 40 9 6
-1 12 3 12 10 0 6 7 9 15 6 8 -4 17 -2 21 4 3 6 12 8 19 5 7 -2 16 -1 21 4 5
4 70 24 144 45 130 36 159 46 129 44 -8 0 -284 -72 -614 -161z"/>
<path d="M5938 2615 c-48 -12 -89 -21 -91 -18 -3 2 -7 -3 -10 -12 -7 -16 3
-20 19 -6 5 4 51 18 102 31 50 12 92 24 92 26 0 7 -23 3 -112 -21z"/>
</g>
</svg>
