<?xml version="1.0" standalone="no"?>
<!DOCTYPE svg PUBLIC "-//W3C//DTD SVG 20010904//EN"
 "http://www.w3.org/TR/2001/REC-SVG-20010904/DTD/svg10.dtd">
<svg version="1.0" xmlns="http://www.w3.org/2000/svg"
 width="1024.000000pt" height="230.000000pt" viewBox="0 0 1024.000000 230.000000"
 preserveAspectRatio="xMidYMid meet">

<g transform="translate(0.000000,230.000000) scale(0.100000,-0.100000)"
fill="#1b8a25" stroke="none">
<path d="M845 2230 c-11 -18 -217 -192 -221 -187 -3 3 0 26 7 51 6 26 9 50 5
53 -3 3 -29 -8 -57 -26 l-52 -32 7 32 c6 30 5 31 -22 24 -106 -26 -135 -110
-126 -365 3 -91 7 -217 8 -280 1 -63 5 -121 9 -127 5 -8 3 -13 -3 -13 -7 0 -9
-7 -6 -16 4 -9 2 -118 -4 -243 -18 -388 -19 -560 -2 -615 12 -37 12 -53 4 -67
-8 -12 -8 -20 -2 -24 6 -4 7 -11 4 -17 -11 -18 -10 -90 2 -138 l11 -45 38 75
c41 83 43 85 50 78 4 -4 -40 -175 -61 -233 -13 -37 126 109 152 160 l26 50 -6
-90 -6 -90 86 85 c63 62 85 78 79 60 -20 -68 -38 -170 -32 -176 4 -5 32 17 62
46 30 30 55 50 55 45 -1 -6 -7 -37 -15 -70 -8 -32 -13 -60 -12 -61 1 -2 25 18
54 42 38 33 56 57 68 94 15 46 15 52 0 85 -16 32 -16 38 -2 68 20 44 33 313
39 832 3 248 2 260 -15 257 -17 -3 -18 1 -11 40 12 68 8 468 -6 519 l-12 44
-29 -35 c-37 -44 -37 -30 2 60 17 40 29 73 27 75 -8 8 -135 -86 -150 -112 -31
-49 -20 -10 26 96 39 89 51 123 31 91z m-86 -1690 c-12 -51 -37 -110 -38 -89
-1 14 9 48 34 117 10 27 12 10 4 -28z"/>
<path d="M9332 2133 c-56 -81 -142 -177 -142 -160 0 3 12 32 26 64 14 32 35
78 46 103 l19 45 -61 -60 c-33 -33 -71 -75 -83 -92 -12 -18 -26 -33 -30 -33
-5 0 -5 5 -2 10 4 6 3 47 -1 91 l-7 80 -37 -98 c-20 -54 -53 -132 -74 -173
l-36 -75 5 53 c4 50 36 126 87 210 l20 33 -76 -46 c-89 -54 -139 -109 -156
-170 -13 -45 -30 -52 -30 -12 -2 49 -69 -112 -90 -212 -21 -103 -20 -124 3
-115 11 4 11 -9 4 -64 -8 -60 -6 -78 13 -139 21 -68 78 -166 120 -208 11 -12
20 -25 20 -30 0 -24 208 -205 306 -268 71 -45 87 -70 81 -123 -3 -31 -13 -54
-30 -72 l-25 -25 -76 41 c-78 42 -162 72 -202 72 -50 0 -154 -125 -154 -185 0
-65 -26 -139 -108 -309 -7 -14 115 55 154 87 19 16 44 47 55 69 11 22 23 38
26 35 9 -9 -17 -78 -58 -156 -22 -40 -38 -75 -37 -76 2 -1 14 -8 27 -15 20
-10 28 -8 67 20 24 17 44 28 44 23 0 -4 -9 -36 -19 -70 -11 -35 -17 -63 -14
-63 2 0 24 13 48 30 62 43 123 116 142 172 10 26 22 48 26 48 5 0 7 -7 3 -15
-11 -30 -19 -173 -12 -229 l8 -57 44 56 c24 32 44 61 44 66 0 19 17 8 26 -17
9 -26 10 -25 55 37 82 112 99 141 99 166 0 14 4 21 10 18 6 -3 10 -45 10 -92
0 -77 2 -84 16 -72 8 7 25 31 36 53 l20 40 15 -35 15 -34 51 135 c28 74 52
137 54 139 13 17 14 -24 3 -118 -7 -60 -10 -121 -6 -136 l7 -26 30 22 c44 31
87 103 95 158 4 25 10 55 14 65 6 18 8 17 14 -7 3 -14 11 -38 16 -52 9 -23 12
-24 30 -13 25 16 47 73 60 157 10 67 7 81 -15 81 -10 0 -14 20 -14 88 -1 145
-46 266 -146 397 -17 22 -39 53 -49 68 -28 45 -157 177 -173 177 -8 0 -12 4
-9 9 3 5 0 11 -7 14 -6 2 -40 25 -73 51 -43 32 -67 58 -78 86 -21 54 -20 67 8
85 22 15 29 13 117 -30 52 -25 104 -45 117 -45 45 0 112 41 137 84 44 75 89
225 86 286 -2 46 -6 48 -38 19 -16 -14 -24 -18 -21 -9 12 32 30 132 25 137 -3
2 -19 -3 -36 -11 -37 -20 -47 -20 -32 -2 15 18 -2 56 -23 56 -26 0 -111 -65
-146 -112 -19 -26 -36 -45 -38 -43 -2 2 3 24 13 48 13 34 15 56 8 100 l-8 57
-45 -40 c-25 -21 -48 -39 -51 -40 -3 0 -2 25 3 56 5 31 7 61 6 66 -2 5 -31
-31 -66 -79z"/>
<path d="M1307 2125 c-59 -47 -109 -85 -111 -85 -2 0 -9 14 -15 31 -7 19 -15
28 -22 23 -9 -5 -10 -71 -4 -268 11 -372 11 -938 2 -1241 l-9 -260 37 35 c20
19 48 57 63 84 18 33 28 44 30 32 6 -27 -66 -171 -147 -296 l-16 -25 50 29
c28 16 72 44 98 63 27 19 51 32 54 29 3 -3 -4 -33 -16 -67 -11 -34 -19 -65
-16 -67 7 -8 112 75 142 113 15 19 38 58 50 87 l22 53 -6 -125 c-3 -70 -1
-136 4 -150 10 -24 11 -23 54 37 24 34 47 62 50 62 3 1 9 -11 15 -25 l9 -26
28 22 28 22 -6 337 -6 338 62 7 c34 3 105 6 158 6 103 0 155 16 175 55 6 11
21 36 33 55 31 48 38 134 23 261 -11 91 -16 107 -41 131 -22 22 -37 28 -71 28
-24 0 -48 -4 -53 -9 -15 -14 -212 -20 -273 -8 -53 10 -53 10 -46 41 4 17 10
57 14 88 7 65 13 76 33 60 8 -7 16 -10 18 -7 3 2 62 11 131 19 182 21 234 49
267 145 15 47 25 214 17 285 -7 52 -9 56 -22 39 -13 -17 -13 -17 -14 3 -1 64
-93 37 -172 -49 -27 -28 -48 -46 -48 -40 0 6 13 39 30 74 16 35 28 65 25 67
-8 9 -125 -70 -150 -101 -25 -31 -25 -31 -16 -5 6 15 22 50 36 78 14 28 30 62
35 76 12 30 16 33 -122 -78 -89 -73 -118 -92 -103 -69 8 14 23 101 17 101 -2
0 -29 -14 -59 -31 -47 -27 -54 -29 -50 -13 18 60 28 107 24 110 -2 3 -57 -51
-122 -118 -75 -78 -109 -108 -92 -82 25 41 109 204 105 204 -2 0 -52 -39 -111
-85z"/>
<path d="M3200 2148 c-25 -27 -68 -77 -97 -111 l-52 -62 -1 -298 c0 -165 -2
-303 -5 -307 -3 -5 0 -10 6 -12 9 -3 9 -13 0 -39 -12 -37 -15 -309 -3 -309 4
0 6 -98 5 -217 -3 -233 -1 -265 20 -257 11 4 12 -6 4 -55 -5 -33 -6 -76 -2
-97 l7 -37 23 29 c13 16 31 46 41 67 18 40 39 51 29 15 -14 -46 -63 -145 -112
-225 l-51 -82 66 41 c37 22 82 51 100 65 18 14 35 23 37 21 3 -2 -4 -33 -15
-68 -11 -35 -17 -66 -15 -68 6 -6 94 60 127 95 15 15 41 57 58 93 l31 65 -8
-55 c-9 -69 -5 -222 6 -233 4 -4 29 20 54 54 l46 62 12 -26 c12 -26 12 -26 73
56 33 45 68 105 78 132 l17 50 1 -97 c0 -54 4 -98 9 -98 12 0 48 49 60 81 8
23 9 23 24 -11 13 -32 15 -33 23 -15 4 11 30 76 56 145 l49 125 -7 -147 c-4
-97 -3 -148 4 -148 5 0 32 24 60 54 49 54 72 109 72 172 0 15 3 24 7 20 4 -4
6 -64 4 -133 l-3 -126 40 46 c51 59 125 177 153 247 31 76 32 268 1 380 -21
79 -78 192 -126 254 l-29 37 35 37 c119 124 147 372 64 577 -19 46 -53 108
-77 138 l-42 55 -36 -54 c-19 -29 -36 -52 -38 -50 -2 2 10 41 27 87 16 45 30
84 30 86 0 11 -26 -3 -79 -42 -34 -25 -63 -45 -66 -45 -2 0 3 16 11 35 8 19
10 35 5 35 -10 0 -55 -33 -98 -73 l-33 -31 7 69 6 68 -72 -38 c-56 -30 -82
-51 -114 -94 -49 -66 -58 -55 -22 25 39 87 45 104 37 104 -16 0 -128 -92 -150
-122 -31 -44 -24 -18 34 113 l43 101 -98 -91 c-54 -50 -104 -98 -111 -106 -8
-9 -21 -20 -30 -25 -16 -9 -16 -6 -5 28 7 20 16 52 20 71 l7 34 -34 -20 c-19
-11 -47 -29 -63 -39 -27 -18 -28 -18 -22 1 26 88 38 137 35 140 -1 1 -23 -20
-48 -47z m465 -459 c67 -14 95 -41 95 -93 0 -65 -34 -122 -94 -156 -28 -17
-54 -30 -58 -30 -5 0 -8 13 -8 29 0 17 -5 33 -11 37 -8 5 -10 31 -6 83 3 42 2
93 -2 113 -8 35 -7 38 13 33 11 -3 43 -10 71 -16z m-2 -811 c67 -33 82 -60 72
-128 -9 -55 -24 -87 -63 -123 -28 -27 -98 -52 -106 -38 -7 11 -8 51 -7 194 l1
138 23 -7 c12 -3 48 -20 80 -36z"/>
<path d="M5021 2148 c-52 -65 -181 -198 -194 -198 -5 0 0 15 11 33 15 25 71
122 111 192 11 21 -113 -91 -155 -140 l-45 -50 7 60 7 60 -32 -30 c-18 -16
-46 -55 -64 -85 -17 -30 -63 -104 -103 -165 -41 -63 -80 -138 -93 -175 -56
-176 -85 -528 -62 -777 11 -122 57 -326 72 -318 3 3 9 24 13 47 7 46 54 158
66 158 12 0 -19 -143 -46 -207 -23 -56 -25 -65 -13 -97 15 -43 21 -44 39 -11
22 41 30 28 13 -19 l-16 -44 34 -53 c38 -60 66 -88 89 -89 9 0 21 -5 27 -11
14 -14 45 30 79 109 l25 57 -7 -60 c-9 -73 -6 -227 5 -238 4 -4 27 20 51 53
43 60 44 61 60 40 15 -20 17 -19 80 67 35 48 69 105 76 128 12 38 13 36 13
-59 l1 -99 21 19 c12 10 30 37 40 59 l18 40 12 -32 c6 -18 15 -31 19 -28 4 3
29 62 55 132 26 71 49 130 52 133 3 3 2 -59 -2 -137 -8 -164 -4 -172 58 -104
48 53 64 87 74 152 7 51 8 47 13 -56 l5 -110 58 102 c139 243 187 426 187 713
0 69 -7 181 -15 250 -19 156 -77 450 -89 450 -2 0 -35 -18 -75 -39 -39 -22
-71 -35 -71 -30 0 20 23 55 67 100 42 44 44 48 31 72 l-13 26 -59 -24 c-32
-13 -74 -39 -92 -56 -19 -18 -36 -30 -40 -27 -7 7 63 80 161 166 l70 62 -85
-26 c-47 -14 -100 -32 -117 -40 -36 -14 -40 -9 -20 21 8 11 22 33 32 48 l18
28 -52 -21 c-94 -37 -135 -62 -178 -109 -42 -44 -60 -40 -27 7 15 22 33 162
20 162 -3 0 -28 -16 -56 -36 -27 -20 -50 -33 -50 -29 0 4 7 34 16 67 8 33 13
62 11 65 -3 2 -23 -20 -46 -49z m104 -608 c8 -16 15 -38 15 -49 0 -10 5 -21
11 -23 20 -7 27 -91 19 -242 -11 -195 -46 -345 -120 -511 -44 -99 -74 -106
-108 -25 -48 112 -7 598 64 758 30 67 70 122 89 122 8 0 21 -13 30 -30z"/>
<path d="M6461 2148 c-52 -65 -181 -198 -194 -198 -5 0 0 15 11 33 15 25 71
122 111 192 11 21 -113 -91 -155 -140 l-45 -50 7 60 7 60 -32 -30 c-18 -16
-46 -55 -64 -85 -17 -30 -63 -104 -103 -165 -41 -63 -80 -138 -93 -175 -56
-176 -85 -528 -62 -777 11 -122 57 -326 72 -318 3 3 9 24 13 47 7 46 54 158
66 158 12 0 -19 -143 -46 -207 -23 -56 -25 -65 -13 -97 15 -43 21 -44 39 -11
22 41 30 28 13 -19 l-16 -44 34 -53 c38 -60 66 -88 89 -89 9 0 21 -5 27 -11
14 -14 45 30 79 109 l25 57 -7 -60 c-9 -73 -6 -227 5 -238 4 -4 27 20 51 53
43 60 44 61 60 40 15 -20 17 -19 80 67 35 48 69 105 76 128 12 38 13 36 13
-59 l1 -99 21 19 c12 10 30 37 40 59 l18 40 12 -32 c6 -18 15 -31 19 -28 4 3
29 62 55 132 26 71 49 130 52 133 3 3 2 -59 -2 -137 -8 -164 -4 -172 58 -104
48 53 64 87 74 152 7 51 8 47 13 -56 l5 -110 58 102 c139 243 187 426 187 713
0 69 -7 181 -15 250 -19 156 -77 450 -89 450 -2 0 -35 -18 -75 -39 -39 -22
-71 -35 -71 -30 0 20 23 55 67 100 42 44 44 48 31 72 l-13 26 -59 -24 c-32
-13 -74 -39 -92 -56 -19 -18 -36 -30 -40 -27 -7 7 63 80 161 166 l70 62 -85
-26 c-47 -14 -100 -32 -117 -40 -36 -14 -40 -9 -20 21 8 11 22 33 32 48 l18
28 -52 -21 c-94 -37 -135 -62 -178 -109 -42 -44 -60 -40 -27 7 15 22 33 162
20 162 -3 0 -28 -16 -56 -36 -27 -20 -50 -33 -50 -29 0 4 7 34 16 67 8 33 13
62 11 65 -3 2 -23 -20 -46 -49z m104 -608 c8 -16 15 -38 15 -49 0 -10 5 -21
11 -23 20 -7 27 -91 19 -242 -11 -195 -46 -345 -120 -511 -44 -99 -74 -106
-108 -25 -48 112 -7 598 64 758 30 67 70 122 89 122 8 0 21 -13 30 -30z"/>
<path d="M7610 2094 c-41 -52 -86 -112 -100 -132 -34 -51 -70 -96 -70 -88 0 4
14 34 31 69 31 61 99 217 99 227 0 2 -50 -45 -112 -105 -61 -61 -105 -99 -96
-85 46 76 80 142 75 147 -3 3 -26 -4 -50 -16 -24 -11 -48 -21 -55 -21 -6 0
-16 -19 -23 -42 -9 -36 -9 -48 5 -72 14 -23 14 -31 4 -37 -10 -7 -9 -25 5 -94
13 -65 15 -90 7 -100 -7 -8 -10 -29 -9 -47 2 -18 0 -38 -4 -45 -4 -6 -5 -229
-1 -495 11 -925 8 -860 40 -895 30 -33 35 -28 60 64 9 35 19 61 21 59 5 -5
-30 -181 -51 -263 l-14 -53 49 42 c27 23 61 56 75 75 14 19 28 33 30 31 2 -2
-3 -26 -11 -53 -8 -26 -13 -50 -10 -53 5 -6 68 58 112 113 l31 40 -14 -60 c-7
-33 -14 -77 -14 -98 l0 -38 31 18 c54 31 129 104 151 147 11 22 34 61 51 85
27 39 31 42 42 27 7 -9 16 -37 20 -61 8 -54 18 -63 34 -28 17 37 21 25 9 -27
-8 -36 -7 -53 5 -83 9 -20 20 -37 24 -37 4 0 37 36 72 81 35 44 65 78 67 76 2
-2 -2 -22 -10 -44 -8 -22 -17 -67 -21 -99 l-8 -59 29 25 c16 13 44 38 63 55
28 25 32 27 28 10 -3 -11 -8 -35 -12 -53 -6 -31 -6 -32 27 -32 38 0 44 8 129
162 28 51 62 107 75 125 l24 32 -31 113 c-64 236 -80 297 -114 442 -19 83 -35
157 -35 166 0 8 26 81 58 160 155 385 223 635 222 825 l-1 60 -44 -84 c-64
-123 -79 -131 -45 -25 15 49 26 91 24 93 -4 5 -69 -43 -111 -82 -37 -35 -39
-32 -18 20 8 19 15 38 15 40 0 9 -93 -68 -118 -96 l-23 -26 7 68 7 69 -44 -22
c-70 -35 -108 -69 -145 -126 -29 -45 -39 -53 -57 -49 -20 5 -27 -5 -72 -97
l-49 -103 -7 140 c-3 77 -10 151 -16 164 -9 23 -10 22 -52 -28 -24 -28 -46
-51 -50 -51 -5 0 -2 24 6 53 23 89 16 96 -44 48 -29 -22 -54 -41 -56 -41 -2 0
4 35 14 78 10 42 18 80 16 84 -1 4 -36 -36 -77 -88z m79 -1743 c-6 -18 -13
-30 -15 -28 -2 2 1 18 7 36 6 18 13 30 15 28 2 -2 -1 -18 -7 -36z"/>
<path d="M8407 288 c-58 -137 -108 -288 -94 -288 10 0 157 177 181 217 8 14
-33 153 -45 153 -4 0 -23 -37 -42 -82z"/>
</g>
</svg>
