<?xml version="1.0" standalone="no"?>
<!DOCTYPE svg PUBLIC "-//W3C//DTD SVG 20010904//EN"
 "http://www.w3.org/TR/2001/REC-SVG-20010904/DTD/svg10.dtd">
<svg version="1.0" xmlns="http://www.w3.org/2000/svg"
 width="600.000000pt" height="600.000000pt" viewBox="0 0 600.000000 600.000000"
 preserveAspectRatio="xMidYMid meet">

<g transform="translate(0.000000,600.000000) scale(0.100000,-0.100000)"
fill="#000000" stroke="none">
<path d="M1895 4979 c-232 -29 -440 -134 -601 -301 -196 -205 -288 -426 -288
-693 0 -258 81 -462 264 -666 41 -47 65 -67 70 -59 5 9 33 -8 90 -51 45 -35
87 -67 93 -70 7 -3 27 -14 44 -23 18 -9 74 -33 125 -52 79 -29 110 -36 204
-41 61 -3 124 -3 139 1 l28 7 -7 71 c-4 40 -8 73 -10 75 -1 2 -48 8 -105 13
-138 15 -371 84 -371 111 0 5 -7 9 -15 9 -8 0 -23 9 -32 20 -10 11 -22 20 -28
21 -5 0 -38 33 -73 72 -76 87 -161 251 -194 377 -30 113 -32 315 -5 405 74
243 279 454 526 540 179 63 380 49 588 -38 l83 -35 47 74 c25 41 51 74 57 74
6 0 -20 20 -58 45 -86 54 -222 100 -341 114 -101 12 -130 12 -230 0z"/>
<path d="M3865 4980 c-138 -19 -251 -60 -350 -125 l-55 -37 17 -29 c10 -16 24
-29 33 -29 8 0 28 -20 43 -45 l29 -45 36 16 c177 76 360 113 472 95 131 -21
167 -32 255 -76 201 -100 347 -260 418 -459 72 -205 21 -532 -115 -734 -37
-55 -134 -162 -147 -162 -4 0 -16 -9 -26 -20 -10 -11 -24 -20 -32 -20 -7 0
-13 -4 -13 -9 0 -13 -151 -69 -245 -91 -44 -10 -114 -22 -157 -25 l-76 -7 -7
-68 c-4 -38 -4 -74 0 -79 4 -7 45 -11 102 -11 186 0 359 62 522 186 48 37 76
52 80 45 17 -27 178 174 241 299 120 238 137 487 53 743 -52 156 -116 259
-243 388 -155 157 -306 240 -511 283 -95 20 -247 27 -324 16z"/>
<path d="M2850 4723 c-118 -21 -302 -87 -294 -107 7 -17 -20 -44 -52 -52 -13
-3 -24 -10 -24 -15 0 -5 -7 -9 -15 -9 -9 0 -18 -7 -21 -15 -4 -8 -13 -15 -20
-15 -8 0 -17 -7 -20 -15 -4 -8 -12 -15 -19 -15 -19 0 -145 -137 -198 -217
-151 -227 -196 -535 -116 -801 11 -37 24 -76 28 -87 5 -11 14 -33 21 -50 25
-63 124 -200 195 -271 136 -136 309 -229 498 -268 144 -30 378 -17 505 28 151
54 325 180 433 314 83 103 130 192 169 316 58 189 63 353 16 536 -29 117 -62
191 -123 283 -51 77 -168 207 -187 207 -6 0 -17 9 -24 20 -7 11 -19 20 -27 20
-8 0 -15 5 -15 11 0 5 -13 15 -30 20 -16 6 -30 15 -30 19 0 4 -11 11 -25 14
-14 4 -25 11 -25 16 0 6 -7 10 -16 10 -11 0 -15 6 -11 19 4 17 -7 24 -78 50
-126 45 -219 61 -352 60 -65 -1 -129 -4 -143 -6z m340 -208 c92 -22 254 -104
330 -168 92 -76 163 -179 234 -338 49 -112 57 -342 16 -489 -27 -95 -98 -232
-155 -299 -25 -29 -45 -57 -45 -62 0 -5 -6 -9 -14 -9 -8 0 -26 -13 -39 -30
-14 -16 -30 -30 -36 -30 -6 0 -11 -4 -11 -10 0 -5 -7 -10 -15 -10 -8 0 -15 -4
-15 -9 0 -10 -116 -63 -185 -84 -158 -50 -352 -50 -510 0 -69 21 -185 74 -185
84 0 5 -7 9 -15 9 -8 0 -15 5 -15 10 0 6 -5 10 -11 10 -6 0 -22 14 -36 30 -13
17 -31 30 -39 30 -8 0 -14 4 -14 9 0 5 -20 33 -45 62 -58 68 -128 204 -157
305 -32 112 -32 315 -1 424 27 91 98 227 159 301 112 137 311 250 493 279 74
12 230 4 311 -15z"/>
<path d="M1208 3131 c-198 -87 -355 -197 -523 -365 -173 -174 -294 -363 -388
-601 -64 -164 -197 -611 -197 -662 0 -44 5 -53 53 -106 l52 -57 110 -25 c61
-13 223 -45 360 -70 138 -25 257 -48 266 -51 12 -3 15 3 15 28 0 18 4 65 8
103 l8 71 -303 53 c-167 30 -314 57 -326 62 -19 7 -23 16 -23 51 0 77 68 341
117 458 8 19 19 44 23 55 23 56 92 189 134 255 156 251 390 462 667 601 l98
49 -35 82 c-19 45 -32 88 -30 95 3 7 4 13 3 12 -1 0 -41 -17 -89 -38z"/>
<path d="M4704 3162 c3 -5 -8 -44 -24 -86 -17 -43 -30 -83 -30 -89 0 -7 39
-32 88 -56 317 -156 593 -430 747 -741 35 -71 42 -87 78 -170 29 -67 74 -225
98 -343 36 -178 64 -159 -329 -228 -177 -31 -325 -59 -328 -62 -6 -6 14 -175
22 -188 2 -4 63 4 136 17 73 14 223 40 333 59 258 45 286 55 352 121 50 50 53
55 53 105 0 28 -7 72 -15 98 -8 25 -24 96 -35 156 -118 606 -577 1189 -1101
1395 -28 11 -48 16 -45 12z"/>
<path d="M2210 2852 c-41 -20 -81 -43 -88 -49 -7 -7 -24 -16 -38 -19 -13 -3
-24 -9 -24 -13 0 -4 -18 -15 -40 -25 -22 -10 -40 -22 -40 -27 0 -5 -7 -9 -15
-9 -9 0 -18 -7 -21 -15 -4 -8 -12 -15 -19 -15 -7 0 -27 -13 -45 -30 -18 -16
-36 -30 -41 -30 -5 0 -14 -9 -21 -20 -7 -11 -18 -20 -24 -20 -17 0 -204 -197
-271 -288 -187 -249 -311 -557 -372 -922 -21 -126 -19 -182 8 -214 7 -8 10
-20 9 -27 -2 -8 17 -23 42 -36 35 -16 151 -36 510 -87 734 -104 900 -118 1360
-118 536 -1 1003 47 1524 156 218 46 266 76 282 175 9 57 -16 223 -32 217 -9
-3 -17 14 -24 52 -56 280 -187 575 -357 804 -76 102 -247 288 -266 288 -5 0
-18 11 -29 25 -11 14 -25 25 -33 25 -7 0 -15 7 -19 15 -3 8 -10 15 -15 15 -6
0 -22 11 -37 25 -15 14 -33 25 -40 25 -8 0 -14 5 -14 10 0 6 -7 10 -15 10 -8
0 -15 4 -15 9 0 5 -11 12 -25 15 -14 4 -25 11 -25 16 0 6 -7 10 -15 10 -8 0
-23 9 -32 20 -10 11 -22 20 -28 20 -6 0 -43 16 -83 35 l-72 34 -13 -27 c-20
-39 -52 -131 -46 -134 2 -2 42 -23 89 -47 273 -140 512 -354 662 -591 32 -50
128 -236 148 -285 4 -11 15 -36 23 -55 39 -90 107 -368 107 -437 0 -23 -4 -44
-9 -47 -23 -15 -397 -80 -626 -110 -658 -85 -1379 -87 -2045 -6 -173 21 -540
82 -625 103 -48 12 -50 13 -53 50 -6 70 66 367 115 477 119 265 220 418 387
585 144 143 254 225 428 315 85 44 105 59 98 70 -6 8 -19 43 -31 78 -11 34
-24 62 -27 61 -4 0 -41 -17 -82 -37z"/>
</g>
</svg>
