<?xml version="1.0" standalone="no"?>
<!DOCTYPE svg PUBLIC "-//W3C//DTD SVG 20010904//EN"
 "http://www.w3.org/TR/2001/REC-SVG-20010904/DTD/svg10.dtd">
<svg version="1.0" xmlns="http://www.w3.org/2000/svg"
 width="512.000000pt" height="512.000000pt" viewBox="0 0 512.000000 512.000000"
 preserveAspectRatio="xMidYMid meet">

<g transform="translate(0.000000,512.000000) scale(0.100000,-0.100000)"
fill="#000000" stroke="none">
<path d="M432 5100 c-103 -27 -186 -75 -262 -150 -76 -77 -123 -159 -150 -266
-20 -76 -20 -118 -20 -2124 0 -2006 0 -2048 20 -2124 27 -107 74 -189 150
-266 77 -76 159 -123 266 -150 76 -20 118 -20 2124 -20 2006 0 2048 0 2124 20
107 27 189 74 266 150 76 77 123 159 150 266 20 76 20 118 20 2124 0 2006 0
2048 -20 2124 -27 107 -74 189 -150 266 -77 76 -159 123 -266 150 -76 20 -117
20 -2128 19 -1986 0 -2053 -1 -2124 -19z m3818 -978 l170 -284 -278 -276
c-601 -599 -956 -1056 -1266 -1629 -117 -216 -204 -411 -373 -838 -85 -214
-158 -394 -162 -398 -5 -5 -89 90 -187 210 -378 464 -543 635 -930 974 -110
95 -260 227 -334 293 -74 66 -136 121 -138 121 -2 2 365 633 374 644 2 2 34
-23 71 -55 106 -92 676 -600 798 -712 l110 -100 26 47 c216 390 413 682 657
974 127 152 417 468 639 695 216 221 634 623 646 619 4 -1 84 -130 177 -285z"/>
</g>
</svg>
