<?xml version="1.0" standalone="no"?>
<!DOCTYPE svg PUBLIC "-//W3C//DTD SVG 20010904//EN"
 "http://www.w3.org/TR/2001/REC-SVG-20010904/DTD/svg10.dtd">
<svg version="1.0" xmlns="http://www.w3.org/2000/svg"
 width="512.000000pt" height="512.000000pt" viewBox="0 0 512.000000 512.000000"
 preserveAspectRatio="xMidYMid meet">

<g transform="translate(0.000000,512.000000) scale(0.100000,-0.100000)"
fill="#000000" stroke="none">
<path d="M4605 5114 c-70 -15 -116 -30 -155 -52 -46 -26 -420 -388 -420 -407
0 -13 612 -625 625 -625 21 0 383 375 406 420 96 185 67 392 -76 535 -100 99
-260 154 -380 129z"/>
<path d="M0 2235 l0 -2235 2235 0 2235 0 0 1617 0 1617 -32 -29 c-18 -16 -156
-151 -305 -300 l-273 -270 0 -1002 0 -1003 -1630 0 -1630 0 0 1620 0 1620
1024 0 1023 0 239 253 c132 138 259 273 283 300 l44 47 -1607 0 -1606 0 0
-2235z"/>
<path d="M2805 3449 l-989 -993 320 -313 c175 -172 321 -312 324 -313 3 0 448
443 990 985 l985 985 -321 321 -320 320 -989 -992z"/>
<path d="M1610 2218 c-59 -134 -439 -1043 -437 -1045 3 -3 1069 446 1077 453
5 6 -611 613 -623 613 -4 1 -12 -9 -17 -21z"/>
</g>
</svg>
