<?xml version="1.0" standalone="no"?>
<!DOCTYPE svg PUBLIC "-//W3C//DTD SVG 20010904//EN"
 "http://www.w3.org/TR/2001/REC-SVG-20010904/DTD/svg10.dtd">
<svg version="1.0" xmlns="http://www.w3.org/2000/svg"
 width="1280.000000pt" height="1221.000000pt" viewBox="0 0 1280.000000 1221.000000"
 preserveAspectRatio="xMidYMid meet">

<g transform="translate(0.000000,1221.000000) scale(0.100000,-0.100000)"
fill="#000000" stroke="none">
<path d="M3365 12195 c-216 -41 -390 -171 -478 -358 -14 -29 -258 -691 -542
-1472 -915 -2513 -1337 -3672 -1822 -5005 -262 -718 -485 -1336 -496 -1375
-25 -91 -27 -245 -3 -334 46 -176 180 -345 333 -421 26 -13 949 -601 2050
-1307 l2003 -1284 1047 -134 c577 -75 1275 -164 1553 -200 278 -36 856 -110
1285 -165 429 -55 816 -107 860 -117 102 -21 241 -21 325 0 191 50 354 181
433 350 14 29 258 691 542 1472 915 2513 1337 3672 1822 5005 262 718 485
1337 496 1375 25 91 27 245 3 334 -48 185 -181 346 -354 431 -61 30 -89 36
-322 66 -140 18 -274 36 -297 39 -31 5 -56 19 -101 58 -32 29 -125 110 -206
181 -109 95 -146 133 -143 146 4 14 -3 20 -29 25 -19 3 -50 19 -68 35 -40 36
-42 36 -49 9 -3 -13 -11 -19 -19 -17 -7 3 -94 20 -193 38 -99 18 -181 34 -182
35 -2 1 44 131 102 289 58 158 105 291 105 295 0 3 -66 28 -147 54 -511 163
-939 237 -1364 237 -217 0 -339 -10 -494 -41 -414 -83 -816 -333 -1192 -741
-60 -66 -76 -78 -103 -78 -25 0 -97 41 -308 177 l-275 177 -61 84 c-210 293
-541 653 -781 851 -354 293 -853 627 -1268 851 -89 48 -98 55 -93 76 6 23 4
24 -44 24 -28 0 -64 7 -80 15 -27 14 -29 14 -35 -5 -6 -19 -15 -20 -285 -20
l-279 0 -240 154 c-249 160 -289 179 -406 196 -87 12 -113 11 -200 -5z m1334
-532 c-6 -16 -290 -795 -631 -1733 -341 -938 -633 -1739 -648 -1780 -15 -41
-371 -1018 -790 -2170 -419 -1152 -768 -2109 -775 -2127 l-14 -33 -208 0
c-114 0 -397 -5 -627 -10 -231 -6 -421 -8 -424 -5 -3 2 277 778 621 1722 344
945 986 2710 1427 3923 442 1213 806 2209 810 2213 8 9 549 23 1002 25 l268 2
-11 -27z m540 -210 c498 -299 923 -617 1219 -911 349 -348 666 -796 902 -1272
l62 -125 -392 -1075 c-216 -591 -763 -2094 -1217 -3340 -453 -1246 -917 -2521
-1031 -2833 -129 -355 -210 -564 -215 -555 -4 7 -42 76 -84 153 -308 568 -692
1039 -1168 1430 -312 256 -821 594 -1213 805 -74 40 -100 59 -96 70 7 18 985
2705 2052 5635 435 1194 795 2183 801 2198 l11 29 98 -53 c53 -28 175 -99 271
-156z m4585 -1144 c249 -25 519 -78 814 -161 124 -35 181 -55 178 -63 -2 -7
-310 -853 -684 -1881 -374 -1028 -1016 -2791 -1426 -3919 -411 -1127 -748
-2055 -751 -2062 -2 -8 -30 -3 -92 17 -231 74 -569 148 -853 187 -169 23 -679
26 -800 5 -231 -40 -386 -90 -574 -186 -235 -119 -476 -303 -676 -513 -57 -60
-100 -99 -98 -88 3 11 328 907 723 1990 394 1084 1005 2760 1356 3725 l638
1754 75 111 c396 585 906 968 1421 1065 211 39 479 46 749 19z m1133 -892 c95
-18 175 -36 179 -39 3 -4 -481 -1345 -1076 -2980 -595 -1635 -1240 -3406
-1433 -3936 -327 -899 -352 -963 -371 -958 -32 9 -377 72 -491 90 -645 100
-1282 117 -1770 46 -321 -47 -795 -177 -1122 -309 -29 -11 -53 -17 -53 -13 0
20 161 205 304 348 531 531 1017 694 1811 608 320 -35 676 -114 996 -222 l116
-40 778 2137 c427 1175 1036 2848 1353 3719 432 1186 580 1582 591 1582 9 0
94 -15 188 -33z m541 -299 c115 -101 329 -286 475 -413 146 -126 266 -236 266
-243 1 -13 -291 -817 -2160 -5949 -379 -1041 -689 -1898 -689 -1904 0 -6 -4
-9 -9 -7 -5 2 -210 179 -456 393 -246 215 -460 400 -475 412 l-28 23 635 1742
c349 959 642 1764 651 1790 9 25 368 1012 797 2192 429 1180 781 2146 782
2146 1 0 96 -82 211 -182z m-9509 -5509 c274 -145 699 -413 966 -609 231 -169
390 -305 576 -490 248 -248 397 -431 595 -730 100 -151 260 -427 253 -434 -6
-6 -3638 2288 -3639 2297 0 4 111 8 248 8 232 2 808 13 861 17 14 1 76 -25
140 -59z m4921 -2089 c398 -19 866 -79 1272 -163 l108 -22 431 -375 c237 -206
424 -376 417 -378 -8 -1 -246 29 -529 67 -474 65 -977 133 -1919 261 -201 27
-594 81 -875 119 -280 38 -603 82 -717 97 -115 16 -208 32 -208 35 0 13 327
128 516 183 531 153 955 202 1504 176z"/>
</g>
</svg>
