<?xml version="1.0" standalone="no"?>
<!DOCTYPE svg PUBLIC "-//W3C//DTD SVG 20010904//EN"
 "http://www.w3.org/TR/2001/REC-SVG-20010904/DTD/svg10.dtd">
<svg version="1.0" xmlns="http://www.w3.org/2000/svg"
 width="512.000000pt" height="512.000000pt" viewBox="0 0 512.000000 512.000000"
 preserveAspectRatio="xMidYMid meet">

<g transform="translate(0.000000,512.000000) scale(0.100000,-0.100000)"
fill="#000000" stroke="none">
<path d="M1325 4994 c-388 -86 -655 -414 -655 -804 0 -474 391 -844 864 -817
126 7 225 35 341 95 72 38 109 66 185 142 97 97 144 165 186 268 47 117 58
179 58 317 -1 111 -5 143 -28 218 -14 49 -38 112 -52 140 -104 207 -305 370
-529 432 -88 23 -283 29 -370 9z"/>
<path d="M1350 2950 c-588 -58 -1087 -454 -1273 -1010 -40 -119 -77 -328 -77
-437 l0 -33 995 0 995 0 0 63 c0 71 22 235 45 334 56 245 180 502 337 700 l49
62 -68 51 c-153 113 -432 229 -628 258 -104 16 -279 22 -375 12z"/>
<path d="M3570 2815 c-160 -24 -301 -69 -434 -138 -452 -235 -737 -703 -736
-1209 1 -328 117 -639 333 -887 469 -541 1272 -626 1843 -196 385 289 590 766
533 1240 -48 404 -265 756 -604 979 -277 183 -614 259 -935 211z m410 -830
l225 225 145 -145 145 -145 -225 -225 -225 -225 225 -225 225 -225 -145 -145
-145 -145 -225 225 -225 225 -225 -225 -225 -225 -145 145 -145 145 225 225
225 225 -225 225 -225 225 145 145 145 145 225 -225 225 -225 225 225z"/>
</g>
</svg>
