<?xml version="1.0" standalone="no"?>
<!DOCTYPE svg PUBLIC "-//W3C//DTD SVG 20010904//EN"
 "http://www.w3.org/TR/2001/REC-SVG-20010904/DTD/svg10.dtd">
<svg version="1.0" xmlns="http://www.w3.org/2000/svg"
 width="512.000000pt" height="512.000000pt" viewBox="0 0 512.000000 512.000000"
 preserveAspectRatio="xMidYMid meet">

<g transform="translate(0.000000,512.000000) scale(0.100000,-0.100000)"
fill="#000000" stroke="none">
<path d="M2117 4272 l-787 -787 1053 -1053 1052 -1052 790 790 790 790 -1050
1050 c-577 578 -1052 1050 -1055 1050 -3 0 -359 -354 -793 -788z"/>
<path d="M543 2698 l-543 -543 1047 -1047 1048 -1048 1512 0 1513 0 0 170 0
170 -1332 0 -1333 0 370 370 370 370 -1050 1050 c-577 578 -1052 1050 -1055
1050 -3 0 -249 -244 -547 -542z"/>
</g>
</svg>
