<?xml version="1.0" standalone="no"?>
<!DOCTYPE svg PUBLIC "-//W3C//DTD SVG 20010904//EN"
 "http://www.w3.org/TR/2001/REC-SVG-20010904/DTD/svg10.dtd">
<svg version="1.0" xmlns="http://www.w3.org/2000/svg"
 width="512.000000pt" height="512.000000pt" viewBox="0 0 512.000000 512.000000"
 preserveAspectRatio="xMidYMid meet">

<g transform="translate(0.000000,512.000000) scale(0.100000,-0.100000)"
fill="#000000" stroke="none">
<path d="M1750 5114 c-119 -12 -228 -29 -315 -50 -748 -183 -1304 -799 -1416
-1569 -19 -128 -16 -415 5 -545 71 -432 268 -800 586 -1095 512 -475 1255
-623 1921 -382 53 19 115 45 139 57 l43 22 726 -724 c693 -691 729 -726 801
-761 219 -108 467 -82 655 70 221 179 286 483 158 743 -35 72 -70 108 -761
801 l-724 726 22 43 c64 125 132 361 155 537 140 1064 -631 2028 -1695 2123
-109 9 -223 11 -300 4z m355 -348 c442 -68 822 -311 1067 -681 354 -536 334
-1247 -50 -1765 -395 -534 -1083 -752 -1722 -548 -317 101 -613 326 -801 609
-174 260 -258 542 -259 861 -1 747 538 1387 1279 1518 130 23 358 25 486 6z
m1957 -3323 c736 -737 718 -716 718 -838 -1 -196 -201 -322 -380 -239 -47 21
-152 122 -722 692 -368 367 -668 669 -668 672 0 3 22 21 48 40 60 45 247 232
292 292 19 26 37 48 40 48 3 0 305 -300 672 -667z"/>
<path d="M1675 4564 c-345 -58 -643 -233 -850 -499 -411 -528 -375 -1271 85
-1749 212 -221 467 -356 763 -402 124 -20 372 -14 487 11 438 96 801 401 966
810 154 383 119 845 -90 1190 -181 298 -483 526 -810 611 -167 44 -392 55
-551 28z m401 -179 c524 -92 918 -519 963 -1044 9 -111 -1 -268 -23 -365 -107
-458 -487 -811 -955 -887 -94 -15 -283 -12 -385 6 -233 41 -438 148 -611 320
-136 134 -236 295 -289 463 -195 619 132 1260 748 1467 158 53 382 69 552 40z"/>
<path d="M1837 4290 c-9 -6 -24 -25 -33 -41 -12 -25 -13 -37 -4 -65 15 -46 47
-60 151 -68 101 -7 235 -43 322 -87 264 -134 456 -404 482 -682 13 -135 16
-149 42 -173 36 -33 82 -32 118 4 27 27 27 28 22 132 -22 446 -351 843 -792
955 -112 29 -280 42 -308 25z"/>
</g>
</svg>
